<svg width="802" height="760" viewBox="0 0 802 760" fill="none" xmlns="http://www.w3.org/2000/svg">
<g style="mix-blend-mode:hard-light" filter="url(#filter0_b_9_1095)">
<path fill-rule="evenodd" clip-rule="evenodd" d="M251.922 41.5866C242.758 48.2758 225.488 68.7375 210.446 90.7281C179.164 136.462 165.847 182.508 171.764 224.463C173.154 234.315 175.416 241.75 179.826 250.929C182.312 256.112 182.635 256.645 186.338 261.6C190.722 267.48 195.065 272.266 200.39 277.086C206.099 282.249 214.781 290.279 216.097 291.601C219.376 294.902 219.586 297.112 217.442 305.694C213.859 320.036 208.752 329.385 197.117 342.902C191.29 349.67 185.945 354.821 182.687 356.805C179.729 358.606 177.441 358.323 173.128 355.62C166.366 351.38 152.467 347.197 144.169 346.904C138.911 346.718 132.624 348.753 127.243 352.38C125.003 353.89 124.491 354.41 123.133 356.557C122.278 357.908 120.591 361.445 119.38 364.421C115.039 375.082 112.966 378.79 109.592 381.939C105.778 385.497 101.521 386.194 90.2844 385.093C70.9063 383.2 66.037 384.352 61.3616 391.941C60.4719 393.384 58.0989 398.8 55.9392 404.318L52.1019 414.125L-5.4133 449.439C-37.045 468.861 -97.6483 506.012 -140.087 531.995C-295.625 627.227 -356.926 665.08 -388.899 685.633C-408.977 698.539 -408.498 698.162 -414.364 705.713C-416.116 707.967 -416.307 708.44 -417.643 713.83C-419.194 720.092 -419.53 723.643 -418.827 726.426C-417.735 730.766 -412.402 739.554 -409.055 742.529C-407.136 744.237 -404.03 745.609 -398.784 747.061C-391.141 749.183 -387.415 749.355 -381.846 747.851C-373.84 745.69 -366.627 741.676 -312.899 709.476C-263.604 679.935 -258.099 676.822 -252.658 675.416C-252.051 675.26 -251.367 675.272 -251.141 675.444C-248.189 677.729 -230.462 704.839 -202.322 750.107C-166.147 808.295 -159.837 817.458 -152.613 822.248C-149.491 824.314 -146.563 824.845 -140.871 824.361C-135.383 823.899 -132.7 823.249 -129.483 821.606C-123.649 818.626 -119.739 813.044 -117.909 805.079C-116.112 797.26 -116.821 794.577 -125.117 777.917C-133.218 761.647 -133.785 759.24 -131.892 749.266C-129.873 738.655 -127.142 733.58 -119.788 726.787C-112.399 719.963 -105.23 716.493 -96.6706 715.593C-90.6961 714.967 -86.1698 715.471 -78.8467 717.586C-74.0597 718.968 -72.1556 719.894 -69.9527 721.92C-66.9497 724.677 -65.8185 726.142 -56.6906 739.032C-47.7696 751.641 -41.0593 756.641 -32.702 756.903C-28.3614 757.042 -21.8574 755.823 -17.6256 754.079C-15.5892 753.24 -13.4866 751.115 -11.1305 747.515C-6.68839 740.727 -4.22551 732.72 -4.70906 726.642C-5.15241 721.079 -8.45752 714.995 -39.0294 663.419C-69.2743 612.412 -74.8993 602.804 -80.2572 593.057C-86.4658 581.76 -88.1231 577.345 -86.9058 575.356C-86.585 574.828 -84.9996 573.336 -83.3852 572.041C-76.1957 566.273 -68.4841 561.445 6.03771 516.055L79.5975 471.253L90.0295 472.044C109.105 473.488 115.502 472.493 120.602 467.287C123.772 464.051 125.389 460.888 128.833 451.199C130.61 446.196 132.115 443.256 134.757 439.639C136.094 437.807 140.318 435.023 143.028 434.188C146.217 433.207 151.472 432.78 157.648 433.004C169.172 433.422 175.766 432.053 181.365 428.079C186.517 424.423 189.621 419.215 191.632 410.853C192.807 405.973 193.286 400.963 193.598 390.358C193.734 385.7 193.904 381.627 193.972 381.309C194.065 380.875 194.573 380.537 196.037 379.941C197.108 379.504 199.517 378.512 201.392 377.735C203.267 376.959 205.342 376.154 205.998 375.95C217.917 372.227 225.658 370.825 236.933 370.345C240.386 370.197 248.117 370.572 251.365 371.043C258.598 372.092 266.409 374.551 269.796 376.846C271.276 377.849 271.696 378.332 272.405 379.83C273.193 381.496 274.654 386.454 276.318 393.113C276.703 394.664 277.555 397.89 278.209 400.284C284.755 424.323 287.374 430.631 294.717 440.092C311.538 461.763 351.586 480.632 387.407 483.767C415.068 486.187 450.074 482.678 480.656 474.418C492.354 471.258 507.087 466.214 511.688 463.793C516.138 461.452 516.18 460.833 512.242 455.918C509.037 451.911 506.051 448.654 498.476 440.894C480.494 422.462 450.077 393.628 440.54 385.972C421.001 370.284 400.822 358.611 382.172 352.209C377.904 350.744 369.104 348.558 364.653 347.858C357.593 346.746 350.738 346.748 343.331 347.864C334.713 349.164 333.051 349.924 313.68 361.422L297.633 370.947L292.211 368.389C285.645 365.291 283.608 364.047 279.915 360.88C275.846 357.393 273.256 354.389 270.519 349.969C268.283 346.364 268.126 346.005 267.9 343.9C267.612 341.202 269.027 334.638 270.407 332.268C270.922 331.383 272.463 329.649 273.835 328.412C276.132 326.339 278.387 324.914 302.171 310.503C329.314 294.057 332.314 292.395 341.08 288.946C347.655 286.36 357.357 284.194 365.388 283.52C374.226 282.779 382.458 283.402 391.764 285.517C400.667 287.543 405.834 289.374 418.355 294.932L426.282 298.449L428.443 302.012C430.905 306.069 443.69 326.121 453.997 342.099C471.214 368.778 476.328 373.369 497.713 381.36C514.253 387.533 539.888 390.511 567.221 389.432C577.146 389.039 583.782 388.477 596.767 386.929C601.937 386.313 614.64 384.061 621.158 382.606C631.962 380.194 638.917 378.225 654.616 373.138C658.213 371.972 661.725 370.437 664.12 368.984C666.365 367.622 666.797 367.237 666.995 366.427C667.419 364.705 666.21 363.32 652.517 349.853C644.69 342.155 630.813 328.902 629.266 327.647C628.872 327.328 627.276 325.923 625.72 324.524C620 319.392 610.841 311.582 608.893 310.186C608.558 309.943 607.048 308.76 605.538 307.556C585.364 291.438 563.126 278.325 544.497 271.56C532.865 267.336 509.128 262.234 499.698 261.93C491.467 261.666 480.706 263.691 471.887 267.163C464.386 270.115 459.794 272.761 445.818 282.181C440.85 285.531 439.227 286.007 435.695 285.147C429.304 283.592 422.303 278.223 409.039 264.695C406.022 261.616 403.192 258.786 402.755 258.404C402.318 258.023 401.869 257.551 401.753 257.36C401.516 256.97 403.53 250.694 404.631 248.384C406.387 244.711 411.531 241.092 429.118 231.157C452.425 217.993 466.341 211.792 478.845 209.003C483.084 208.057 491.167 207.438 495.309 207.738C503.325 208.324 512.862 211.087 522.669 215.671C531.056 219.589 539.515 225.229 548.761 233.062C550.142 234.233 551.555 235.384 551.903 235.619C552.545 236.06 556.993 240.569 558.662 242.473C559.173 243.056 563.772 247.478 568.881 252.3C573.99 257.122 578.521 261.459 578.95 261.938C580.327 263.47 583.816 264.785 591.663 266.726C605.54 270.166 619.005 271.93 636.687 272.633C653.7 273.308 667.877 272.788 683.979 270.896C695.64 269.528 712.507 265.261 718.169 262.247C720.586 260.96 720.655 260.893 720.801 259.718C721.13 257.014 718.534 254.369 700.848 239.373C695.323 234.691 689.324 229.658 687.51 228.193C685.7 226.725 683.669 225.071 682.999 224.515C682.329 223.96 679.604 221.87 676.941 219.873C662.3 208.888 651.257 202.536 636.727 196.725C615.89 188.392 603.581 186.83 590.297 190.824C584.187 192.662 582.065 193.658 565.15 202.64C554.706 208.186 551.12 208.453 542.246 204.352C534.374 200.715 522.048 193.296 517.581 189.511C515.085 187.4 514.435 186.23 514.586 184.157C514.91 179.798 523.293 173.248 542.218 162.568C557.113 154.164 564.489 150.736 572.191 148.642C579.576 146.634 585.15 146.554 592.346 148.348C600.502 150.38 606.024 153.154 621.67 163.054C638.223 173.535 642.845 175.901 650.139 177.639C660.227 180.044 674.772 179.463 690.199 176.041C705.402 172.669 719.15 168.442 722.24 166.19C723.41 165.339 721.93 162.352 718.75 159.124C715.653 155.983 710.994 151.882 710.013 151.442C709.803 151.345 708.982 150.749 708.191 150.113C706.024 148.376 698.001 143.175 694.367 141.142C687.456 137.286 682.289 135.127 676.309 133.612C666.154 131.036 658.779 131.377 634.948 135.527C625.34 137.2 621.764 136.817 617.827 133.695C616.036 132.279 608.743 124.475 607.867 123.043C607.573 122.558 608.255 122.097 618.167 116.083C624.005 112.541 630.336 108.886 632.232 107.965C643.619 102.429 652.082 101.151 662.248 103.436C666.672 104.429 675.319 107.511 678.902 109.369C681.716 110.828 686.719 112.467 694.962 114.633C706.171 117.571 713.175 118.212 722.074 117.116C730.601 116.063 743.921 111.43 750.127 107.359C752.562 105.762 753.081 105.282 753.543 104.211C754.727 101.46 752.735 98.356 746.182 92.7577C733.829 82.2049 725.734 80.5421 687.199 80.6376C681.881 80.6512 677.261 80.1616 677.387 79.6023C677.422 79.4608 680.395 77.4351 684 75.0964C690.507 70.8745 690.567 70.8431 692.931 70.4141C700.223 69.091 707.815 69.1963 711.186 70.6673C715.387 72.4979 729.224 75.8118 738.474 77.2059C752.785 79.3583 764.108 75.4997 771.866 65.8254C778.576 57.4547 790.677 32.5107 796.11 15.8468C798.608 8.18515 801.514 -1.69093 801.351 -1.96073C801.221 -2.17356 785.383 -4.73076 777.26 -5.85036C746.695 -10.0586 733.137 -10.152 723.048 -6.22289C719.596 -4.87732 714.206 -1.59478 711.098 1.05583C704.444 6.72884 700.344 13.4842 697.852 22.8775C696.562 27.7259 696.277 29.708 695.998 35.6753C695.892 37.9117 695.477 41.1226 695.079 42.8081C694.464 45.4015 693.918 46.5446 691.564 50.2079C687.376 56.7268 682.3 62.3617 677.65 65.6594C675.689 67.0498 675.103 67.3108 673.399 67.5506C666.892 68.4651 666.777 63.7912 672.978 50.5963C674.346 47.69 677.206 42.0097 679.338 37.9707C688.446 20.6989 691.26 12.5333 690.68 5.04089C690.289 0.00165803 687.292 -6.70971 684.826 -8.07384C682.94 -9.11896 680.399 -8.67398 676.792 -6.66574C673.399 -4.77557 667.359 -0.222143 663.24 3.55196C654.075 11.9522 648.205 22.8935 646.52 34.7242C646.156 37.2818 645.212 43.43 644.419 48.39C643.626 53.3495 642.771 58.915 642.512 60.7605C641.557 67.6458 638.336 77.5617 634.991 83.9064C631.403 90.7171 626.025 96.4014 616.869 103.063C610.472 107.717 601.982 113.662 601.793 113.62C601.367 113.526 597.144 101.117 596.367 97.6847C594.333 88.7134 595.805 83.1282 603.307 71.3489C614.146 54.3377 616.679 49.2851 618.953 40.1495C621.243 30.9517 621.326 24.7706 619.387 6.80071C618.627 -0.230938 618.153 -3.51327 617.394 -6.95619C616.044 -13.0676 615.072 -13.7526 611.218 -11.3053C603.948 -6.68689 585.302 13.7991 578.25 24.9155C568.949 39.5786 565.142 63.7143 569.161 82.5627C571.602 94.0277 571.426 99.8647 568.25 112.147C563.716 129.703 559.21 135.141 534.895 152.413C525.299 159.228 515.2 165.431 511.326 166.889C507.787 168.22 505.494 168.287 503.766 167.104C502.096 165.966 501.528 165.019 500.501 161.683C499.223 157.526 498.198 150.904 497.57 142.804C496.619 130.517 497.187 121.299 499.086 118.072C500.544 115.593 502.162 114.334 511.601 108.338C523.681 100.664 529.043 96.3888 534.327 90.2199C541.042 82.3754 545.285 72.8572 547.021 61.7491C549.335 46.9106 549.545 28.3369 547.531 16.727C544.283 -1.96565 533.561 -47.6523 532.124 -48.9049C528.557 -52.0232 512.304 -35.7933 496.607 -13.4381C475.974 15.949 462.542 47.3094 461.735 67.9785C461.403 76.4689 462.256 80.8235 466.612 92.8139C467.774 96.0141 468.851 99.104 469.002 99.6817C469.157 100.257 469.895 102.091 470.646 103.756C471.396 105.421 472.215 107.389 472.461 108.132C472.707 108.876 473.456 110.977 474.119 112.807C477.12 121.051 478.953 128.515 479.262 133.737C480.185 149.227 474.856 173.594 468.171 184.478C466.021 187.979 463.962 190.355 460.608 193.207C453.409 199.329 422.617 219.337 407.279 227.858C397.431 233.329 394.673 234.534 390.961 234.983C387.327 235.422 386.797 235.075 384.098 230.529C381.822 226.698 378.925 220.509 377.233 215.857C374.134 207.363 373.693 198.197 376.063 191.54C377.157 188.462 378.16 187.115 381.751 183.897C382.186 183.507 387.879 179.777 394.404 175.605C402.393 170.497 407.236 167.219 409.234 165.569C420.928 155.906 425.899 147.17 431.538 126.361C439.844 95.7111 441.73 71.05 437.973 42.2421C435.945 26.7237 431.923 8.64749 426.208 -10.5843C425.662 -12.4295 424.768 -15.4474 424.223 -17.2923C416.351 -44.0345 414.529 -49.6174 412.691 -52.6468C411.033 -55.3793 410.981 -55.3757 406.319 -52.2565C398.498 -47.0224 383.626 -32.2834 371.833 -18.0794C359.225 -2.88882 339.808 27.8858 329.838 48.4801C324.696 59.1064 320.064 73.2843 318.983 81.6946C317.369 94.2506 319.041 109.111 323.322 120.321C326.369 128.302 338.788 151.835 357.61 185.284C361.309 191.857 362.411 194.042 362.32 194.599C362.25 195.003 361.604 199.707 360.879 205.058C357.275 231.681 354.32 241.886 346.956 253.135C337.854 267.04 324.36 277.294 278.52 305.136L261.543 315.449L256.65 313.853C253.217 312.729 250.94 311.726 249 310.481L246.241 308.706L243.992 304.999C242.091 301.866 241.653 300.906 241.19 298.787C240.624 296.2 240.157 291.994 240.162 289.481C240.166 288.172 240.945 274.422 241.044 273.946C241.066 273.834 242.526 272.733 244.287 271.5C265.198 256.858 266.483 255.897 271.319 251.293C275.6 247.218 280.284 240.678 283.038 234.934C296.937 205.939 296.094 151.104 281.061 106.404C279.025 100.348 272.299 79.8684 270.228 73.4168C269.449 70.9881 268.033 66.5522 267.077 63.5617C262.969 50.6638 258.563 39.269 257.593 39.0352C257.328 38.9672 256.514 39.1096 255.793 39.3466C254.492 39.7736 254.076 40.0143 251.922 41.5866Z" fill="white" fill-opacity="0.38"/>
</g>
<defs>
<filter id="filter0_b_9_1095" x="-440.477" y="-75.9485" width="1263.13" height="921.776" filterUnits="userSpaceOnUse" color-interpolation-filters="sRGB">
<feFlood flood-opacity="0" result="BackgroundImageFix"/>
<feGaussianBlur in="BackgroundImageFix" stdDeviation="10.65"/>
<feComposite in2="SourceAlpha" operator="in" result="effect1_backgroundBlur_9_1095"/>
<feBlend mode="normal" in="SourceGraphic" in2="effect1_backgroundBlur_9_1095" result="shape"/>
</filter>
</defs>
</svg>
