<svg width="181" height="55" viewBox="0 0 181 55" fill="none" xmlns="http://www.w3.org/2000/svg">
<g clip-path="url(#clip0_9_1112)">
<path d="M1.17645 54.4924V36.8999H11.7823L21.5589 48.9632L31.3354 36.8999H42.3435V54.4924H34.4017V44.163L26.0325 54.4924H17.0853L9.11831 44.6658V54.4924H1.17645ZM44.3485 54.4924V36.8999H77.0207V41.4236H52.2903V43.4343H77.0207V47.958H52.2903V49.9687H77.0207V54.4924H44.3485ZM104.512 54.4924V49.9687H87.8246C82.4713 49.9687 79.0282 46.7769 79.0282 40.9209V36.8999H86.97V40.9209C86.97 42.5547 87.8496 43.4343 89.4834 43.4343H104.512V36.8999H112.454V54.4924H104.512ZM127.186 54.4924V42.9316H114.469V36.8999H147.895V42.9316H135.128V54.4924H127.186ZM161.099 42.4288L157.429 46.9529H164.768L161.099 42.4288ZM156.625 36.8999H165.572L179.822 54.4924H170.875L168.839 51.9793H153.358L151.322 54.4924H142.375L156.625 36.8999Z" fill="white"/>
<path fill-rule="evenodd" clip-rule="evenodd" d="M103.97 0.254524C103.277 0.313728 101.72 0.837438 100.232 1.5123C97.1368 2.91586 94.9737 4.90776 93.9492 7.29738C93.7086 7.85854 93.5906 8.32064 93.5298 8.94264C93.4952 9.2937 93.4952 9.33196 93.5317 9.70984C93.5745 10.1579 93.6499 10.5473 93.7758 10.9697C93.9108 11.4224 94.1105 12.1201 94.1374 12.2314C94.2043 12.509 94.145 12.6316 93.7596 13.0136C93.1155 13.652 92.5503 13.98 91.5103 14.3187C90.9894 14.4883 90.5453 14.5884 90.3114 14.5887C90.099 14.589 89.9881 14.5014 89.848 14.2222C89.6283 13.7844 89.0327 13.1224 88.607 12.8429C88.3372 12.6657 87.9429 12.5723 87.5454 12.5913C87.3799 12.5992 87.3365 12.6102 87.197 12.6796C87.1092 12.7233 86.9082 12.8552 86.75 12.9727C86.1833 13.3939 85.9566 13.5224 85.6796 13.5802C85.3664 13.6455 85.121 13.5465 84.5669 13.131C83.6112 12.4147 83.3193 12.3201 82.8327 12.5694C82.7402 12.6168 82.4434 12.8254 82.1547 13.0461L81.6415 13.4385L77.5026 13.4602C75.2263 13.4721 70.8671 13.4918 67.8154 13.5039C56.6311 13.5483 52.213 13.5826 49.8828 13.6431C48.4196 13.681 48.4567 13.6764 47.9089 13.8859C47.7453 13.9483 47.7203 13.9671 47.4788 14.2073C47.1982 14.4865 47.0676 14.6621 47.0159 14.8305C46.9351 15.093 46.9351 15.7238 47.0159 15.9865C47.0622 16.1372 47.1814 16.3081 47.4103 16.5513C47.7434 16.9059 47.9333 17.0336 48.2731 17.132C48.7616 17.2735 49.2675 17.2925 53.1088 17.3137C56.633 17.3332 57.0207 17.3452 57.3507 17.4446C57.3875 17.4558 57.423 17.4782 57.4293 17.4944C57.5114 17.7083 57.5783 19.6951 57.6135 22.966C57.6588 27.1708 57.6981 27.8524 57.9244 28.3337C58.0224 28.5415 58.159 28.6625 58.4728 28.8184C58.7752 28.9689 58.9366 29.0202 59.1575 29.0364C59.5582 29.0658 59.9408 28.8974 60.2901 28.5378C60.6331 28.1847 60.6813 28.0214 60.7764 26.8832C60.8693 25.7717 60.9162 25.6273 61.3327 25.1643C61.7762 24.6718 62.0808 24.4925 62.6824 24.3703C63.2869 24.2475 63.7732 24.2936 64.2506 24.519C64.5837 24.6763 64.805 24.8469 65.1216 25.191C65.3286 25.4159 65.399 25.5251 65.4501 25.7016C65.5198 25.9418 65.5325 26.0547 65.6009 27.0216C65.6675 27.9672 65.8602 28.4432 66.2901 28.723C66.5132 28.8685 66.893 29.0116 67.1703 29.0548C67.3038 29.0756 67.4816 29.0311 67.7197 28.9172C68.1685 28.7025 68.5524 28.3608 68.7204 28.0265C68.8742 27.7205 68.8944 27.2961 68.9325 23.6167C68.9696 19.9776 68.9803 19.2944 69.0095 18.6125C69.0434 17.8221 69.097 17.5377 69.2241 17.472C69.2577 17.4546 69.3883 17.4268 69.5142 17.4102C70.0746 17.3365 70.6325 17.3287 75.9836 17.3199L81.2655 17.3112L81.7873 17.6849C82.7414 18.368 83.1085 18.5194 83.5415 18.4087C83.8106 18.3398 83.996 18.2253 84.4848 17.8267C84.7372 17.6207 84.9096 17.5144 85.1632 17.4087C85.2916 17.3552 85.6016 17.3436 85.7702 17.3861C85.9687 17.4361 86.2578 17.581 86.5744 17.7894C87.1653 18.1783 87.5546 18.3163 87.9746 18.2861C88.361 18.2584 88.6894 18.0839 89.0609 17.7092C89.2777 17.4906 89.4622 17.243 89.8159 16.6965C89.9713 16.4564 90.1098 16.2482 90.1234 16.2336C90.1421 16.2138 90.1795 16.2123 90.2753 16.2276C90.3453 16.2388 90.5032 16.2634 90.6262 16.2824C90.7492 16.3013 90.8836 16.3252 90.9244 16.3353C91.6678 16.5195 92.1182 16.6924 92.7246 17.0262C92.9104 17.1284 93.3038 17.3942 93.4591 17.5223C93.8049 17.8076 94.1362 18.1853 94.2408 18.4136C94.2864 18.5133 94.2931 18.5521 94.2826 18.6532C94.2709 18.7657 94.1897 19.0723 94.0652 19.4747C94.036 19.5684 93.978 19.7647 93.9362 19.9111C93.5146 21.3808 93.4512 21.7951 93.5352 22.5253C93.7276 24.1979 95.2269 26.4629 97.0052 27.7679C98.3784 28.7755 100.325 29.706 102.191 30.2462C102.905 30.4529 103.838 30.6573 104.156 30.6768C104.464 30.6956 104.486 30.6645 104.436 30.2812C104.395 29.969 104.343 29.703 104.192 29.0547C103.836 27.5151 103.159 25.0339 102.902 24.3286C102.377 22.8833 101.69 21.6285 100.916 20.6988C100.739 20.486 100.347 20.0912 100.136 19.9127C99.8014 19.6296 99.4419 19.4115 99.0181 19.2342C98.5249 19.028 98.4136 19.015 97.0322 19.0015L95.8878 18.9904L95.685 18.6835C95.4393 18.3119 95.3721 18.1818 95.2792 17.898C95.1768 17.5856 95.1366 17.3455 95.1337 17.0264C95.1312 16.7661 95.1344 16.7422 95.1895 16.6246C95.2602 16.4739 95.5433 16.1746 95.691 16.0941C95.7462 16.0641 95.8821 16.0222 95.9934 16.001C96.1798 15.9653 96.3434 15.9624 98.0488 15.9635C99.9951 15.9648 100.205 15.9731 100.775 16.0713C101.202 16.1449 101.779 16.3402 102.222 16.5605C102.708 16.803 103.12 17.0978 103.541 17.5051C103.943 17.8948 104.156 18.1554 104.635 18.8456L104.939 19.2826V19.5383C104.939 19.8295 104.971 21.2886 105.003 22.4551C105.057 24.403 105.179 24.8067 106.046 25.9068C106.717 26.7573 107.966 27.7297 109.434 28.5434C109.967 28.8387 110.332 29.0205 111.062 29.3527C111.353 29.485 112.091 29.7713 112.479 29.9025C113.122 30.1199 113.549 30.238 114.534 30.471C114.76 30.5243 114.993 30.5556 115.165 30.5556C115.326 30.5556 115.36 30.5492 115.397 30.513C115.474 30.4361 115.454 30.325 115.165 29.1824C114.999 28.5294 114.693 27.3922 114.652 27.2771C114.642 27.2478 114.603 27.1233 114.566 27.0003C114.429 26.549 114.197 25.8476 114.14 25.7123C114.13 25.6889 114.088 25.5788 114.047 25.4675C113.503 23.9796 112.754 22.5835 111.992 21.6355C111.517 21.0436 110.435 20.0201 109.95 19.704C109.527 19.428 108.898 19.1917 108.325 19.0931C107.838 19.0091 107.513 19.0017 106.481 19.051C106.114 19.0686 106.014 19.0419 105.856 18.8843C105.57 18.5993 105.374 18.0946 105.109 16.9626C105.049 16.705 104.99 16.4664 104.98 16.4325C104.969 16.3985 104.96 16.3595 104.96 16.3458C104.96 16.3178 105.266 16.0526 105.397 15.9665C105.606 15.8296 105.991 15.8036 107.229 15.8423C108.869 15.8936 109.796 16.0114 110.541 16.2631C110.793 16.3484 111.236 16.5733 111.444 16.7209C111.846 17.0069 112.258 17.4555 112.626 18.0082C112.941 18.4808 113.205 19.0461 113.441 19.7514C113.476 19.8568 113.513 19.9622 113.524 19.9856C113.544 20.0292 113.633 20.4074 113.66 20.5604C113.669 20.6072 113.769 20.9857 113.884 21.4013C113.998 21.817 114.098 22.1888 114.105 22.2276C114.128 22.3518 114.269 22.5319 114.619 22.8836C115.237 23.5058 115.887 24.0271 116.792 24.6269C117.662 25.204 118.422 25.6281 119.326 26.0415C119.981 26.341 121.001 26.6541 121.394 26.6762C121.562 26.6857 121.567 26.6844 121.612 26.6274C121.716 26.496 121.664 26.2745 121.214 24.9247C121.073 24.5031 120.918 24.0481 120.87 23.9134C120.822 23.7788 120.768 23.6273 120.75 23.5769C120.733 23.5264 120.657 23.33 120.581 23.1404C120.162 22.0979 119.786 21.4131 119.209 20.6456C118.381 19.545 117.786 19.0711 116.962 18.8577C116.583 18.7596 116.44 18.7443 115.268 18.677C114.544 18.6355 114.347 18.5354 114.013 18.0377C113.716 17.5962 113.305 16.8145 113.192 16.4737C113.128 16.2835 113.131 16.2014 113.205 16.0974C113.361 15.8791 114.008 15.8023 115.34 15.8445C116.389 15.8778 116.884 15.9328 117.355 16.0681C117.806 16.1979 118.101 16.3711 118.421 16.6944C118.784 17.0607 118.985 17.3821 119.49 18.3996C120.025 19.4765 120.192 19.7478 120.519 20.0712C120.971 20.5186 121.752 20.9511 122.67 21.2628C123.575 21.5699 124.43 21.7858 124.663 21.7661C124.752 21.7586 124.769 21.5548 124.705 21.2842C124.643 21.0208 124.529 20.6573 124.492 20.603C124.484 20.5913 124.46 20.5338 124.438 20.4753C124.38 20.3152 124.125 19.7868 123.999 19.5645C123.759 19.1421 123.557 18.8644 123.292 18.5945C122.841 18.136 122.444 17.9191 121.062 17.3781C120.505 17.16 120.33 17.026 120.223 16.7369C120.174 16.6055 120.04 15.9639 120.04 15.8609C120.04 15.8261 120.09 15.8236 120.801 15.8236C121.22 15.8236 121.668 15.8335 121.797 15.8455C122.57 15.9176 123.054 16.12 123.515 16.5636C123.715 16.7565 124.07 17.1935 124.199 17.405C124.3 17.5712 124.51 17.8165 124.874 18.1926C125.368 18.7036 125.714 18.9602 126.216 19.186C126.697 19.4023 127.542 19.5833 127.997 19.5672C128.176 19.561 128.218 19.5523 128.276 19.5109C128.426 19.4042 128.42 19.1779 128.255 18.6756C127.943 17.7286 127.571 17.3836 125.548 16.1618C125.269 15.9932 125.042 15.8204 125.067 15.7951C125.073 15.7887 125.293 15.7771 125.557 15.7692C126.032 15.7549 126.036 15.7551 126.174 15.8079C126.598 15.9706 126.993 16.2179 127.123 16.4024C127.285 16.6322 127.905 17.2466 128.345 17.6142C129.027 18.1828 129.744 18.3408 130.458 18.0803C131.076 17.8547 132.504 16.9313 133.319 16.2299C133.694 15.9075 134.161 15.4818 134.161 15.4625C134.161 15.4472 133.412 14.8087 133.021 14.4914C131.553 13.2975 130.845 12.8609 130.191 12.7459C129.967 12.7066 129.58 12.7072 129.333 12.7473C128.804 12.8331 128.374 13.057 127.944 13.4705C127.722 13.6838 127.644 13.7787 127.44 14.0829C127.363 14.1969 127.239 14.3521 127.165 14.4279C127.05 14.5443 126.985 14.587 126.745 14.7042C126.318 14.9129 125.873 15.0469 125.524 15.0719C125.377 15.0824 125.338 15.0775 125.241 15.0358C124.871 14.8766 125.013 14.6277 125.758 14.1328C125.922 14.0239 126.253 13.8169 126.493 13.6729C127.52 13.0567 127.928 12.7179 128.136 12.3063C128.275 12.0294 128.332 11.5819 128.246 11.4318C128.18 11.3169 128.033 11.2594 127.78 11.2499C127.542 11.2411 127.08 11.2876 126.744 11.3545C125.997 11.5035 125.341 11.8906 124.876 12.4577C124.776 12.5803 124.531 12.8728 124.331 13.1078C124.132 13.3428 123.91 13.6076 123.838 13.6962C123.568 14.027 123.084 14.4447 122.707 14.6711C122.302 14.9142 121.839 15.0412 121.147 15.0992C120.664 15.1397 120.03 15.1813 120.021 15.1731C120.002 15.1546 120.175 14.3691 120.244 14.1643C120.422 13.6288 120.677 13.3827 121.445 13.0035C122.555 12.456 122.848 12.2716 123.258 11.8647C123.671 11.455 123.872 11.1333 124.342 10.1288C124.526 9.73568 124.605 9.54837 124.675 9.34356C124.799 8.97992 124.77 8.91303 124.49 8.91874C123.962 8.92958 122.332 9.41076 121.609 9.7695C120.655 10.2427 119.687 11.3878 119.298 12.5047C119.062 13.1839 118.867 13.4846 118.309 14.0279C117.513 14.8046 117.104 14.9465 115.28 15.0785C114.56 15.1306 113.833 15.1345 113.583 15.0876C113.355 15.0448 113.233 14.9753 113.18 14.8582C113.129 14.7454 113.129 14.6776 113.181 14.4699C113.247 14.2111 113.404 13.831 113.628 13.386C113.969 12.7111 114.292 12.2456 114.495 12.1367C114.65 12.053 114.775 12.0385 115.461 12.0244C116.338 12.0064 116.755 11.9528 117.228 11.7974C117.83 11.5996 118.355 11.2353 118.8 10.7078C119.393 10.0029 119.995 9.0351 120.259 8.36182C120.683 7.27769 121.575 4.5393 121.539 4.42781C121.451 4.15064 120.083 4.48471 118.549 5.15784C116.532 6.04277 114.83 7.26051 114.13 8.31925C113.843 8.75416 113.749 9.00978 113.596 9.77755C113.555 9.98245 113.513 10.1789 113.503 10.214C113.492 10.2491 113.473 10.3689 113.459 10.4801C113.445 10.5913 113.426 10.7207 113.415 10.7675C113.404 10.8143 113.377 10.9484 113.353 11.0655C113.248 11.5936 113.107 12.0436 112.957 12.3274C112.513 13.1695 111.458 14.2783 110.761 14.6365C110.537 14.7517 110.354 14.8108 110.087 14.8537C109.515 14.9457 107.264 15.0151 106.189 14.9738C105.498 14.9474 105.315 14.9227 105.106 14.8281C104.902 14.7355 104.885 14.7004 104.888 14.376C104.891 14.1025 104.936 13.6856 104.995 13.3876C105.103 12.8432 105.371 12.3483 105.707 12.0745C105.863 11.9478 105.958 11.9091 106.249 11.8546C106.284 11.848 106.701 11.8335 107.176 11.8224C107.757 11.8087 108.116 11.791 108.273 11.768C109.193 11.6333 109.732 11.3332 110.69 10.421C112.1 9.07732 112.984 7.84348 113.703 6.21242C114.091 5.33364 114.455 4.25718 114.767 3.0662C114.797 2.95203 114.846 2.76522 114.876 2.65106C115.314 0.997358 115.397 0.646434 115.397 0.428964C115.397 0.232809 115.394 0.23134 115.05 0.246583C114.473 0.272172 113.225 0.571986 112.155 0.941774C111.01 1.33734 109.013 2.33382 107.835 3.0969C107.228 3.4907 106.534 4.08711 106.21 4.49394C105.726 5.10135 105.34 5.93427 105.208 6.65871C105.114 7.17445 105.016 8.80453 104.939 11.1588C104.924 11.6214 104.912 11.7711 104.89 11.7975C104.873 11.8164 104.69 12.0427 104.481 12.3003C103.445 13.5824 102.966 14.0237 102.222 14.3795C101.302 14.8193 100.269 14.9276 96.9796 14.929L95.7614 14.9295L95.5556 14.69C95.4114 14.5217 95.3239 14.3966 95.2618 14.2695L95.1737 14.0886V13.8224C95.1737 13.5975 95.1813 13.5333 95.2244 13.4073C95.277 13.2535 95.3864 13.018 95.4666 12.8863C95.5084 12.8177 95.9867 12.1211 96.007 12.0993C96.0118 12.0942 96.1234 12.0829 96.2549 12.0743C97.817 11.9718 97.915 11.9623 98.315 11.8747C98.6691 11.7972 99.1227 11.6032 99.4498 11.3895C101.101 10.3107 102.801 7.40686 103.435 4.58304C103.521 4.20044 103.82 2.91179 103.917 2.50736C103.953 2.35515 104.02 2.07733 104.065 1.88999C104.26 1.08247 104.392 0.344363 104.348 0.30121C104.337 0.289204 104.289 0.270746 104.244 0.260229C104.162 0.241218 104.133 0.240601 103.97 0.254524Z" fill="white"/>
</g>
<defs>
<clipPath id="clip0_9_1112">
<rect width="181" height="54.5219" fill="white"/>
</clipPath>
</defs>
</svg>
