<svg width="30" height="30" viewBox="0 0 30 30" fill="none" xmlns="http://www.w3.org/2000/svg">
<path d="M6.19116 19.375C3.76124 20.3015 2.25366 21.5924 2.25366 23.0204C2.25366 25.8396 8.12993 28.125 15.3787 28.125C22.6275 28.125 28.5037 25.8396 28.5037 23.0204C28.5037 21.5924 26.996 20.3015 24.5662 19.375M15.3787 10.625H15.3932M24.1287 10.625C24.1287 16.5512 17.5662 19.375 15.3787 23.75C13.1912 19.375 6.62866 16.5512 6.62866 10.625C6.62866 5.79251 10.5462 1.875 15.3787 1.875C20.2111 1.875 24.1287 5.79251 24.1287 10.625ZM16.837 10.625C16.837 11.4304 16.1841 12.0833 15.3787 12.0833C14.5732 12.0833 13.9203 11.4304 13.9203 10.625C13.9203 9.81959 14.5732 9.16667 15.3787 9.16667C16.1841 9.16667 16.837 9.81959 16.837 10.625Z" stroke="#B8914D" stroke-width="2.91667" stroke-linecap="round" stroke-linejoin="round"/>
</svg>
