<svg width="25" height="26" viewBox="0 0 25 26" fill="none" xmlns="http://www.w3.org/2000/svg">
<path d="M14.3055 6.875C15.4654 7.1013 16.5313 7.66856 17.367 8.50418C18.2026 9.33979 18.7699 10.4057 18.9961 11.5656M14.3055 2.125C16.7153 2.39271 18.9624 3.47183 20.6779 5.1852C22.3934 6.89856 23.4755 9.14432 23.7461 11.5538M19.5898 24.6875C9.42436 24.6875 1.18359 16.4467 1.18359 6.28125C1.18359 5.82261 1.20037 5.3679 1.23334 4.91768C1.27117 4.40099 1.29009 4.14265 1.42549 3.90747C1.53764 3.7127 1.73637 3.52798 1.93882 3.43036C2.18324 3.3125 2.46833 3.3125 3.03848 3.3125H6.38404C6.8635 3.3125 7.10323 3.3125 7.30874 3.39141C7.49028 3.46112 7.65192 3.57433 7.77947 3.72112C7.92386 3.88729 8.00578 4.11259 8.16964 4.56319L9.5544 8.37131C9.74499 8.89557 9.84035 9.1577 9.8242 9.40639C9.80995 9.62569 9.73502 9.83672 9.60796 10.016C9.46387 10.2193 9.22469 10.3628 8.74634 10.6498L7.12109 11.625C8.54835 14.7706 11.0993 17.3249 14.2461 18.75L15.2213 17.1248C15.5083 16.6463 15.6517 16.4072 15.855 16.2631C16.0344 16.1361 16.2454 16.0611 16.4647 16.0469C16.7134 16.0307 16.9756 16.1261 17.4998 16.3167L21.3079 17.7014C21.7585 17.8653 21.9838 17.9473 22.15 18.0917C22.2967 18.2192 22.41 18.3808 22.4796 18.5624C22.5586 18.7678 22.5586 19.0076 22.5586 19.4871V22.8326C22.5586 23.4027 22.5586 23.6879 22.4407 23.9323C22.3431 24.1347 22.1584 24.3335 21.9637 24.4456C21.7284 24.581 21.4701 24.5999 20.9535 24.6377C20.5032 24.6708 20.0485 24.6875 19.5898 24.6875Z" stroke="#B8914D" stroke-width="2.375" stroke-linecap="round" stroke-linejoin="round"/>
</svg>
