<svg width="62" height="62" viewBox="0 0 62 62" fill="none" xmlns="http://www.w3.org/2000/svg">
<path d="M43.6738 18.5568C43.6861 18.5568 43.7026 18.5568 43.7191 18.5568C44.1493 18.5568 44.5486 18.6906 44.8759 18.9211L44.8697 18.917C45.1085 19.1249 45.2691 19.4172 45.3082 19.7465V19.7527C45.3493 20.0039 45.372 20.292 45.372 20.5864C45.372 20.7202 45.3679 20.8519 45.3576 20.9837V20.9651C44.8944 25.8416 42.8854 37.6673 41.8644 43.1262C41.4321 45.4378 40.582 46.2118 39.7586 46.2859C37.9699 46.4527 36.6113 45.1044 34.8781 43.9681C32.1651 42.1876 30.6315 41.0801 27.9988 39.3449C24.9544 37.342 26.9284 36.2366 28.6616 34.4376C29.1165 33.9641 37.0024 26.7905 37.1568 26.14C37.165 26.1009 37.1691 26.0577 37.1691 26.0124C37.1691 25.8519 37.1094 25.7057 37.0127 25.5946C36.9056 25.5246 36.7718 25.4855 36.6319 25.4855C36.5392 25.4855 36.4507 25.504 36.3684 25.5349L36.3725 25.5328C36.1008 25.5946 31.7671 28.4585 23.3714 34.1247C22.4554 34.8472 21.2986 35.3042 20.0388 35.3577H20.0265C18.2418 35.1416 16.6218 34.7443 15.0842 34.1782L15.2365 34.2276C13.3057 33.5977 11.7722 33.2663 11.9039 32.2001C11.9739 31.6457 12.7383 31.0782 14.197 30.4977C23.1828 26.5826 29.1749 24.002 32.1733 22.756C35.4812 21.0001 39.3161 19.5551 43.3485 18.6185L43.6717 18.5547L43.6738 18.5568ZM30.928 0C13.8388 0.0411687 0 13.9047 0 31C0 48.12 13.878 62 31 62C48.122 62 62 48.122 62 31C62 13.9047 48.1612 0.0411687 31.0762 0H31.072C31.024 0 30.976 0 30.928 0Z" fill="white"/>
</svg>
