<svg width="62" height="62" viewBox="0 0 62 62" fill="none" xmlns="http://www.w3.org/2000/svg">
<path d="M31 0C13.879 0 0 13.879 0 31C0 48.121 13.879 62 31 62C48.121 62 62 48.121 62 31C62 13.879 48.121 0 31 0ZM42.9221 34.9751C42.9221 34.9751 45.6636 37.6811 46.3385 38.9373C46.3579 38.9631 46.3676 38.989 46.3741 39.0019C46.6485 39.4636 46.7131 39.8221 46.5775 40.0901C46.3515 40.5357 45.5765 40.7553 45.3117 40.7747H40.4679C40.1321 40.7747 39.4281 40.6875 38.5756 40.0998C37.9201 39.6413 37.2743 38.8889 36.6446 38.1558C35.7049 37.0644 34.8911 36.1215 34.0709 36.1215C33.9668 36.1213 33.8632 36.1376 33.7642 36.1699C33.1442 36.3701 32.3498 37.2549 32.3498 39.6122C32.3498 40.3484 31.7685 40.7715 31.3584 40.7715H29.14C28.3844 40.7715 24.448 40.5067 20.9605 36.8286C16.6916 32.324 12.8489 23.2887 12.8166 23.2048C12.5744 22.6203 13.0749 22.3071 13.6206 22.3071H18.5128C19.1651 22.3071 19.3782 22.7043 19.5268 23.0562C19.7011 23.4664 20.3405 25.0971 21.39 26.9312C23.0918 29.9215 24.1348 31.1356 24.9711 31.1356C25.128 31.1338 25.282 31.0939 25.42 31.0194C26.5115 30.4123 26.308 26.5211 26.2596 25.7139C26.2596 25.5621 26.2564 23.9733 25.6977 23.2112C25.2973 22.6591 24.6159 22.4492 24.2026 22.3717C24.3699 22.1408 24.5903 21.9536 24.8452 21.8259C25.5944 21.4514 26.9442 21.3965 28.2843 21.3965H29.0302C30.4833 21.4158 30.8579 21.5095 31.3843 21.6419C32.4499 21.897 32.4725 22.5848 32.3789 24.9389C32.3498 25.6073 32.3207 26.3629 32.3207 27.2542C32.3207 27.4479 32.311 27.6546 32.311 27.8742C32.2788 29.0722 32.24 30.4317 33.086 30.9903C33.1964 31.0595 33.3239 31.0964 33.4542 31.0969C33.748 31.0969 34.6328 31.0969 37.0289 26.9861C37.7678 25.663 38.4099 24.2881 38.9502 22.8722C38.9986 22.7882 39.1407 22.5299 39.3086 22.4298C39.4326 22.3666 39.57 22.3345 39.7091 22.3361H45.4602C46.0867 22.3361 46.5161 22.4298 46.5969 22.672C46.739 23.0562 46.571 24.2284 43.9457 27.7837L42.7735 29.3305C40.3936 32.4499 40.3936 32.6081 42.9221 34.9751Z" fill="white"/>
</svg>
