<svg width="383" height="539" viewBox="0 0 383 539" fill="none" xmlns="http://www.w3.org/2000/svg">
<path fill-rule="evenodd" clip-rule="evenodd" d="M-8.9714 245.856C-12.2321 253.757 -15.3253 273.675 -16.3998 293.69C-18.6335 335.317 -9.25814 370.044 10.8268 394.552C15.5435 400.308 19.8788 404.171 26.2649 408.303C29.8682 410.637 30.2821 410.85 34.575 412.559C39.6632 414.589 44.3001 415.935 49.5779 416.915C55.2342 417.963 63.9057 419.671 65.2613 419.997C68.6405 420.814 69.6337 422.145 71.5966 428.484C74.8781 439.077 75.2454 447.078 73.0574 460.325C71.9608 466.958 70.5446 472.366 69.2316 474.923C68.0399 477.245 66.4674 477.968 62.6589 477.942C56.6872 477.901 46.1741 480.716 40.7544 483.807C37.3198 485.766 34.0902 489.552 32.0587 493.999C31.2133 495.851 31.0875 496.386 31.054 498.297C31.032 499.499 31.3277 502.429 31.709 504.811C33.0759 513.349 33.1909 516.541 32.257 519.889C31.2006 523.673 28.749 525.801 21.1361 529.536C8.0092 535.982 5.34312 538.643 5.3023 545.347C5.29408 546.622 5.88078 551.025 6.64375 555.409C7.52457 560.468 6.74234 565.675 4.41435 570.251L-15.0563 608.526C-27.7368 633.453 -52.0551 681.172 -69.0968 714.568C-131.554 836.966 -156.045 885.41 -168.504 911.196C-176.328 927.388 -176.169 926.958 -176.985 934.108C-177.23 936.242 -177.169 936.62 -175.929 940.597C-174.488 945.217 -173.323 947.622 -171.792 949.125C-169.407 951.471 -162.583 954.987 -159.287 955.568C-157.396 955.903 -154.877 955.554 -150.958 954.41C-145.246 952.748 -142.797 951.386 -139.82 948.223C-135.54 943.677 -132.488 938.258 -110.642 896.423C-90.5988 858.041 -88.288 853.874 -85.3553 850.824C-85.0277 850.485 -84.5855 850.222 -84.3742 850.243C-81.599 850.539 -59.7297 860.882 -24.1472 878.73C21.5935 901.671 29.1882 905.041 35.6686 905.252C38.4676 905.341 40.546 904.523 43.9984 901.965C47.3276 899.501 48.7907 898.025 50.2096 895.702C52.7822 891.49 53.1137 886.373 51.1888 880.553C49.2999 874.839 47.8044 873.403 36.0267 866.02C24.5249 858.81 23.2272 857.493 20.5619 850.363C17.7303 842.775 17.5048 838.448 19.5682 831.196C21.6415 823.91 24.8771 818.856 30.0012 814.898C33.5782 812.137 36.6685 810.671 42.1728 809.131C45.7709 808.124 47.3482 807.964 49.5441 808.39C52.5354 808.967 53.8282 809.458 64.6733 814.1C75.2769 818.643 81.5106 819.191 86.9563 816.057C89.7857 814.43 93.4713 811.081 95.4994 808.292C96.4757 806.951 96.9947 804.76 97.1026 801.526C97.3055 795.427 95.7692 789.329 93.0986 785.631C90.6537 782.247 86.1763 779.659 46.5878 758.736C7.42944 738.047 0.0993673 734.121 -7.11354 730.001C-15.4731 725.225 -18.2482 723.055 -18.2428 721.301C-18.2426 720.837 -17.8088 719.255 -17.2796 717.788C-14.9234 711.257 -11.868 705.12 18.1491 646.629L44.1906 595.886C46.5248 591.337 50.2181 587.63 54.757 585.278C67.5156 578.664 71.22 575.5 72.4586 570.153C73.2282 566.83 73.0331 564.167 71.471 556.606C70.663 552.703 70.4837 550.227 70.7671 546.868C70.9104 545.167 72.5301 541.717 73.9383 540.112C75.5964 538.224 78.7906 535.874 82.8269 533.577C90.3587 529.292 94.0426 525.81 96.0794 521.054C97.9534 516.679 97.9141 512.12 95.9515 505.974C94.8062 502.387 93.1663 498.993 89.2449 492.083C87.5222 489.048 86.0488 486.375 85.9684 486.145C85.859 485.83 86.053 485.413 86.7573 484.453C87.2726 483.75 88.4278 482.163 89.3249 480.926C90.2221 479.688 91.2363 478.353 91.5761 477.963C97.7514 470.871 102.156 466.915 109.18 462.153C111.331 460.694 116.42 457.879 118.68 456.897C123.713 454.71 129.663 453.198 132.72 453.328C134.056 453.385 134.513 453.528 135.548 454.206C136.699 454.961 139.559 457.557 143.211 461.16C144.06 462.001 145.858 463.729 147.206 465.002C160.732 477.798 164.858 480.8 173.23 483.952C192.406 491.174 225.346 487.423 249.469 475.275C268.097 465.894 289.119 449.817 305.464 432.447C311.717 425.803 319.178 416.753 321.18 413.386C323.116 410.13 322.902 409.717 318.474 408.128C314.868 406.831 311.693 405.926 303.834 403.954C285.174 399.263 254.521 392.832 245.448 391.701C226.858 389.382 209.419 389.887 195.006 393.159C191.708 393.908 185.231 395.986 182.113 397.297C177.167 399.375 172.784 402.085 168.481 405.726C163.475 409.963 162.708 411.106 154.789 426.118L150.323 434.583C149.012 437.067 146.559 438.743 143.768 439.059C138.365 439.671 136.579 439.68 132.987 439.113C129.031 438.489 126.207 437.591 122.739 435.843C119.909 434.42 119.669 434.252 118.707 432.994C117.474 431.382 115.829 426.622 115.79 424.561C115.776 423.791 116.088 422.072 116.484 420.739C117.147 418.504 118.036 416.701 127.645 398.082C138.612 376.833 139.884 374.584 144.15 368.913C147.349 364.66 152.711 359.441 157.585 355.836C162.948 351.87 168.455 349.016 175.227 346.692C181.707 344.471 185.723 343.6 195.888 342.21L199.241 341.751C201.247 341.476 203.29 341.826 205.09 342.754C208.241 344.377 224.207 352.157 237.006 358.309C258.381 368.578 263.435 369.495 280.214 366.158C293.19 363.573 310.739 355.35 327.798 343.859C333.991 339.686 338.017 336.704 345.718 330.583C348.785 328.146 356.033 321.685 359.635 318.179C365.607 312.366 369.289 308.358 377.351 298.9C379.199 296.732 380.848 294.362 381.815 292.486C382.721 290.727 382.848 290.31 382.66 289.714C382.261 288.444 380.951 288.036 366.962 284.828C358.966 282.995 344.943 279.998 343.466 279.806C343.09 279.757 341.524 279.489 339.985 279.209C334.334 278.185 325.442 276.807 323.655 276.683C323.346 276.659 321.921 276.499 320.487 276.326C301.324 273.983 282.009 274.379 267.469 277.41C258.39 279.304 241.229 285.419 235.081 288.95C229.715 292.034 223.621 297.582 219.33 303.288C215.681 308.141 213.772 311.648 208.496 323.199C206.62 327.306 205.768 328.251 203.174 329.097C198.484 330.627 191.921 329.957 178.183 326.542C175.058 325.764 172.149 325.071 171.721 325C171.293 324.928 170.823 324.804 170.674 324.727C170.371 324.571 169.221 319.759 169.027 317.846C168.723 314.802 170.606 310.454 177.992 297.147C187.781 279.514 194.27 270.047 201.182 263.321C203.525 261.041 208.453 257.451 211.218 256.007C216.572 253.214 223.743 251.214 231.796 250.272C238.681 249.465 246.282 249.732 255.238 251.091C256.576 251.294 257.926 251.473 258.24 251.486C258.822 251.514 263.418 252.642 265.225 253.201C265.778 253.372 270.437 254.384 275.578 255.451C280.719 256.518 285.301 257.503 285.761 257.64C287.237 258.076 289.979 257.539 295.751 255.681C305.961 252.398 315.257 248.207 326.836 241.67C337.977 235.38 346.841 229.445 356.402 221.872C363.327 216.389 372.455 206.993 374.904 202.827C375.95 201.049 375.968 200.979 375.605 200.17C374.765 198.309 372.077 197.642 354.941 195.034C349.589 194.222 343.798 193.371 342.068 193.15C340.34 192.926 338.399 192.67 337.755 192.58C337.111 192.489 334.556 192.228 332.077 192.003C318.447 190.758 308.917 191.057 297.368 193.08C280.807 195.981 272.329 199.845 265.386 207.65C262.193 211.241 261.224 212.717 253.897 225.148C249.373 232.823 247.184 234.411 239.917 235.293C233.47 236.077 222.705 236.199 218.378 235.543C215.962 235.178 215.092 234.686 214.383 233.3C212.896 230.383 215.712 222.879 223.664 208.567C229.923 197.303 233.308 192.195 237.419 187.812C241.361 183.609 244.894 181.355 250.193 179.66C256.198 177.738 260.807 177.331 274.658 177.484C289.315 177.649 293.19 177.337 298.53 175.567C305.915 173.12 314.989 167.001 323.524 158.715C331.936 150.55 339.085 142.413 340.186 139.752C340.603 138.744 338.496 137.418 335.209 136.609C332.007 135.822 327.435 135.04 326.637 135.145C326.465 135.166 325.708 135.109 324.955 135.015C322.895 134.76 315.744 134.602 312.63 134.736C306.713 135 302.57 135.66 298.157 137.054C290.663 139.418 286.08 142.55 272.453 154.622C266.96 159.489 264.524 160.657 260.793 160.215C259.098 160.016 251.402 157.905 250.286 157.334C249.91 157.14 250.167 156.575 254.168 148.81C256.524 144.237 259.153 139.397 260.007 138.058C265.138 130.016 270.053 125.854 277.441 123.3C280.656 122.187 287.383 120.742 290.396 120.516C292.762 120.337 296.598 119.409 302.711 117.538C311.02 114.989 315.747 112.632 321.012 108.414C326.056 104.371 332.773 96.143 335.159 91.0857C336.096 89.1017 336.241 88.5897 336.121 87.7214C335.809 85.493 333.329 84.2941 326.964 83.3012C314.965 81.4295 309.142 83.5641 284.538 98.8516C281.143 100.962 277.998 102.474 277.861 102.066C277.829 101.962 278.943 99.491 280.339 96.5699C282.86 91.297 282.886 91.2534 284.231 90.0449C288.38 86.3166 293.275 83.3843 296.003 82.9934C299.4 82.5051 309.536 79.1582 315.992 76.3952C325.98 72.1176 331.721 65.1744 332.923 55.9185C333.961 47.9105 332.008 27.167 329.007 14.357C327.627 8.4675 325.649 0.999156 325.439 0.891205C325.274 0.806045 314.152 5.42812 308.523 7.92107C287.343 17.3056 278.638 22.603 273.713 29.1037C272.028 31.3288 269.857 35.5593 268.9 38.4833C266.849 44.743 266.852 50.6855 268.908 57.6812C269.967 61.2936 270.555 62.6744 272.695 66.603C273.496 68.076 274.478 70.2949 274.878 71.5308C275.493 73.4333 275.588 74.3804 275.506 77.6547C275.361 83.4811 274.305 89.0925 272.613 93.0399C271.899 94.7048 271.626 95.1031 270.629 95.9301C266.823 99.0864 264.934 96.1411 263.772 85.2472C263.518 82.8468 263.139 78.0822 262.933 74.6551C262.047 60.0037 260.674 53.6665 257.392 49.1013C255.183 46.0314 250.66 42.9208 248.553 43.0224C246.941 43.0987 245.488 44.3876 243.963 47.0976C242.527 49.6481 240.434 54.9485 239.267 58.9911C236.67 67.988 237.167 77.3088 240.687 85.545C241.447 87.3257 243.233 91.6326 244.653 95.1199C246.073 98.6071 247.689 102.506 248.24 103.789C250.305 108.573 252.098 116.191 252.424 121.573C252.776 127.349 251.546 133.111 248.279 140.992C245.997 146.497 242.878 153.657 242.74 153.704C242.431 153.812 234.91 147.54 233.08 145.651C228.293 140.714 227.064 136.558 227.285 126.056C227.606 110.888 227.262 106.654 225.167 99.9095C223.058 93.1187 220.709 89.1308 212.488 78.3976C209.269 74.1983 207.691 72.2853 205.868 70.3821C202.63 67.005 201.742 66.9508 200.229 70.0395C197.374 75.8676 193.411 96.3443 193.221 106.244C192.97 119.302 199.914 136.251 209.807 146.724C215.823 153.096 217.978 156.901 220.719 166.016C224.641 179.042 223.873 184.302 215.035 204.962C211.547 213.114 207.5 221.074 205.589 223.538C203.843 225.788 202.403 226.737 200.838 226.663C199.328 226.595 198.597 226.213 196.644 224.484C194.212 222.329 190.983 218.496 187.434 213.562C182.053 206.075 178.834 199.952 178.794 197.136C178.764 194.974 179.309 193.529 183.015 185.962C187.758 176.279 189.526 171.424 190.507 165.389C191.754 157.715 190.768 149.948 187.563 142.154C183.277 131.745 176.195 119.776 170.396 113.143C161.056 102.464 136.449 77.4656 135.043 77.2319C131.551 76.646 127.464 93.4536 126.112 113.962C124.337 140.919 127.932 166.294 135.447 179.84C138.534 185.404 140.771 187.853 148.215 193.805C150.202 195.394 152.091 196.945 152.412 197.255C152.735 197.562 153.92 198.444 155.046 199.213C156.173 199.982 157.461 200.917 157.907 201.296C158.353 201.675 159.649 202.724 160.784 203.633C165.906 207.722 169.978 211.774 172.205 214.994C178.813 224.541 184.873 242.239 184.827 251.845C184.813 254.935 184.419 257.269 183.383 260.42C181.158 267.181 169.242 292.152 162.745 303.665C158.574 311.058 157.278 312.918 155.079 314.672C152.926 316.389 152.452 316.377 148.96 314.534C146.016 312.982 141.759 310.166 138.869 307.858C133.587 303.647 129.744 297.956 128.673 292.76C128.177 290.358 128.295 289.099 129.341 285.621C129.467 285.2 131.658 280.563 134.21 275.315C137.334 268.89 139.157 264.879 139.793 263.033C143.517 252.229 143.301 244.675 138.822 229.131C132.224 206.236 123.848 189.71 110.253 172.76C102.926 163.631 93.3312 153.653 82.2045 143.605C81.1389 142.64 79.3945 141.062 78.3291 140.096C62.9049 126.094 59.5707 123.242 57.2181 122.03C55.0962 120.936 55.0643 120.959 53.2955 124.797C50.3276 131.237 46.5445 146.545 44.5227 160.294C42.3623 174.997 41.9039 202.361 43.5301 219.48C44.3707 228.311 46.9178 239.214 49.4938 245.023C53.3408 253.695 60.1838 262.544 67.2768 268.026C72.3261 271.929 89.4105 282.081 114.443 296.048C119.362 298.792 120.915 299.755 121.074 300.148C121.186 300.434 122.601 303.699 124.216 307.409C132.256 325.87 134.331 333.567 133.993 343.676C133.576 356.17 128.931 368.064 110.436 403.993L105.353 413.87C104.231 416.049 102.219 417.633 99.8384 418.212C97.2066 418.85 95.3612 419.108 93.6365 419.078C92.0223 419.048 90.4366 418.647 89.0014 417.908L88.3042 417.549C85.8712 416.295 85.2186 415.854 84.0989 414.681C82.7315 413.249 80.7991 410.742 79.826 409.132C79.3194 408.293 74.4753 399.186 74.3536 398.843C74.3244 398.762 74.8303 397.48 75.4773 395.995C83.1596 378.364 83.6079 377.241 84.9116 372.384C86.0657 368.085 86.5198 362.049 86.0491 357.285C83.6707 333.239 61.8257 298.483 34.8459 275.819C31.1904 272.748 18.9323 262.301 15.1013 258.991C13.6598 257.744 11.0309 255.465 9.25752 253.929C1.61908 247.299 -5.62531 241.748 -6.33652 241.982C-6.53238 242.043 -6.99788 242.456 -7.36672 242.893C-8.03261 243.68 -8.20515 243.998 -8.9714 245.856Z" fill="#F4F4FC"/>
</svg>
