<svg width="1013" height="305" viewBox="0 0 1013 305" fill="none" xmlns="http://www.w3.org/2000/svg">
<path d="M6.5813 304.835V206.421H65.9115L120.602 273.904L175.293 206.421H236.873V304.835H192.446V247.052L145.628 304.835H95.5767L51.0087 249.864V304.835H6.5813ZM248.089 304.835V206.421H430.86V231.728H292.516V242.975H430.86V268.281H292.516V279.529H430.86V304.835H248.089ZM584.651 304.835V279.529H491.298C461.351 279.529 442.09 261.674 442.09 228.915V206.421H486.518V228.915C486.518 238.055 491.438 242.975 500.578 242.975H584.651V206.421H629.078V304.835H584.651ZM711.489 304.835V240.163H640.349V206.421H827.337V240.163H755.916V304.835H711.489ZM901.199 237.351L880.671 262.658H921.724L901.199 237.351ZM876.173 206.421H926.225L1005.94 304.835H955.89L944.502 290.777H857.896L846.508 304.835H796.456L876.173 206.421Z" fill="white"/>
<path fill-rule="evenodd" clip-rule="evenodd" d="M581.615 1.42373C577.737 1.75493 569.031 4.6846 560.705 8.45983C543.391 16.3115 531.29 27.4543 525.559 40.822C524.213 43.9612 523.554 46.5463 523.213 50.0258C523.02 51.9896 523.02 52.2037 523.224 54.3176C523.463 56.8242 523.885 59.0025 524.589 61.3656C525.345 63.8976 526.462 67.8007 526.613 68.4233C526.987 69.9761 526.655 70.6622 524.499 72.799C520.896 76.3703 517.734 78.2049 511.916 80.1C509.002 81.0485 506.518 81.6085 505.209 81.6103C504.021 81.6121 503.401 81.1217 502.617 79.56C501.388 77.1112 498.056 73.4079 495.675 71.8441C494.166 70.853 491.96 70.3304 489.736 70.4366C488.81 70.481 488.567 70.5423 487.787 70.9309C487.296 71.175 486.172 71.9127 485.287 72.5702C482.116 74.9264 480.848 75.6454 479.299 75.9687C477.547 76.3338 476.174 75.78 473.074 73.4556C467.728 69.4486 466.095 68.9194 463.373 70.3143C462.855 70.5794 461.195 71.7462 459.58 72.9811L456.709 75.1762L433.556 75.2973C420.822 75.364 396.436 75.4739 379.365 75.5417C316.799 75.7905 292.084 75.9823 279.048 76.3203C270.863 76.5324 271.07 76.5069 268.006 77.6786C267.091 78.0281 266.951 78.1328 265.6 79.4769C264.031 81.0384 263.3 82.0208 263.011 82.9629C262.559 84.4314 262.559 87.9601 263.011 89.4295C263.27 90.2728 263.937 91.2286 265.217 92.589C267.081 94.5731 268.143 95.2872 270.044 95.8378C272.776 96.6294 275.606 96.7358 297.095 96.8544C316.81 96.9635 318.979 97.0303 320.824 97.5866C321.03 97.649 321.229 97.7744 321.264 97.8652C321.724 99.0614 322.098 110.176 322.295 128.474C322.548 151.995 322.768 155.808 324.034 158.501C324.582 159.663 325.346 160.341 327.102 161.213C328.793 162.054 329.696 162.341 330.932 162.432C333.173 162.596 335.314 161.655 337.268 159.643C339.187 157.668 339.456 156.754 339.988 150.387C340.508 144.169 340.77 143.361 343.1 140.771C345.581 138.016 347.285 137.013 350.651 136.329C354.032 135.642 356.752 135.9 359.423 137.161C361.287 138.041 362.524 138.996 364.296 140.92C365.454 142.179 365.847 142.79 366.133 143.777C366.523 145.12 366.594 145.752 366.977 151.161C367.349 156.451 368.428 159.113 370.832 160.679C372.08 161.492 374.205 162.293 375.756 162.535C376.503 162.651 377.498 162.402 378.829 161.765C381.34 160.564 383.488 158.653 384.428 156.783C385.288 155.071 385.401 152.697 385.614 132.114C385.821 111.756 385.882 107.934 386.045 104.12C386.235 99.698 386.534 98.1071 387.245 97.74C387.433 97.6423 388.164 97.4866 388.868 97.394C392.003 96.9816 395.124 96.9381 425.058 96.8888L454.606 96.8404L457.525 98.9306C462.862 102.752 464.916 103.599 467.338 102.98C468.843 102.594 469.881 101.954 472.615 99.7237C474.027 98.5717 474.991 97.9771 476.41 97.3857C477.128 97.0862 478.862 97.0217 479.806 97.2591C480.916 97.5391 482.533 98.3496 484.304 99.5154C487.61 101.691 489.787 102.463 492.137 102.294C494.299 102.139 496.136 101.163 498.214 99.0667C499.427 97.8436 500.459 96.4586 502.438 93.4014C503.307 92.0585 504.082 90.8935 504.158 90.8122C504.262 90.7012 504.472 90.6927 505.007 90.7784C505.399 90.841 506.282 90.9789 506.97 91.085C507.658 91.191 508.41 91.3244 508.639 91.3811C512.797 92.4114 515.317 93.3785 518.709 95.2459C519.748 95.8176 521.949 97.3045 522.818 98.0211C524.752 99.6173 526.605 101.73 527.191 103.007C527.446 103.565 527.483 103.782 527.425 104.348C527.359 104.977 526.905 106.692 526.208 108.943C526.045 109.467 525.721 110.565 525.487 111.384C523.128 119.606 522.773 121.924 523.243 126.009C524.32 135.365 532.707 148.036 542.655 155.336C550.337 160.973 561.228 166.178 571.667 169.2C575.661 170.356 580.88 171.499 582.66 171.609C584.382 171.714 584.504 171.54 584.224 169.396C583.997 167.649 583.701 166.161 582.86 162.534C580.867 153.922 577.078 140.042 575.643 136.096C572.705 128.011 568.864 120.991 564.534 115.791C563.542 114.6 561.351 112.392 560.17 111.393C558.297 109.81 556.286 108.589 553.915 107.598C551.156 106.444 550.534 106.371 542.806 106.296L536.405 106.234L535.27 104.517C533.895 102.438 533.519 101.71 533 100.123C532.427 98.375 532.202 97.0321 532.186 95.2472C532.172 93.7911 532.189 93.6574 532.498 92.9996C532.893 92.1564 534.477 90.4819 535.303 90.0318C535.612 89.8641 536.373 89.6297 536.995 89.5107C538.038 89.3114 538.953 89.2947 548.493 89.3012C559.381 89.3085 560.556 89.355 563.741 89.9042C566.13 90.3159 569.36 91.4082 571.836 92.6408C574.56 93.9974 576.863 95.6465 579.216 97.9248C581.466 100.105 582.656 101.563 585.339 105.424L587.038 107.868V109.299C587.038 110.928 587.219 119.09 587.398 125.616C587.699 136.512 588.382 138.771 593.232 144.925C596.984 149.683 603.973 155.122 612.181 159.674C615.162 161.326 617.208 162.343 621.292 164.201C622.918 164.942 627.044 166.543 629.215 167.277C632.813 168.493 635.203 169.154 640.713 170.457C641.975 170.755 643.279 170.93 644.24 170.93C645.141 170.93 645.336 170.895 645.538 170.692C645.969 170.262 645.86 169.64 644.241 163.249C643.316 159.596 641.605 153.234 641.374 152.59C641.316 152.426 641.098 151.73 640.89 151.042C640.126 148.517 638.829 144.593 638.507 143.837C638.452 143.706 638.22 143.09 637.991 142.467C634.943 134.144 630.754 126.334 626.495 121.031C623.835 117.719 617.781 111.994 615.07 110.225C612.702 108.682 609.186 107.36 605.982 106.808C603.256 106.339 601.439 106.297 595.663 106.573C593.61 106.671 593.049 106.522 592.166 105.64C590.569 104.046 589.471 101.223 587.988 94.89C587.652 93.4489 587.325 92.1145 587.265 91.9246C587.205 91.7347 587.157 91.5164 587.157 91.4396C587.157 91.2829 588.864 89.7995 589.599 89.3177C590.767 88.5522 592.92 88.4063 599.846 88.6228C609.025 88.9101 614.21 89.5688 618.373 90.977C619.785 91.4543 622.266 92.7123 623.427 93.5381C625.674 95.1377 627.979 97.6473 630.039 100.739C631.802 103.383 633.279 106.545 634.597 110.491C634.794 111.081 635.003 111.67 635.063 111.801C635.173 112.045 635.675 114.16 635.826 115.016C635.872 115.279 636.434 117.395 637.074 119.721C637.714 122.046 638.271 124.126 638.312 124.343C638.443 125.038 639.232 126.045 641.188 128.012C644.646 131.494 648.281 134.41 653.342 137.765C658.211 140.993 662.462 143.366 667.521 145.678C671.184 147.354 676.891 149.105 679.088 149.229C680.026 149.282 680.058 149.275 680.31 148.956C680.888 148.221 680.597 146.982 678.079 139.43C677.291 137.072 676.428 134.527 676.157 133.774C675.887 133.02 675.586 132.173 675.488 131.891C675.391 131.608 674.963 130.51 674.538 129.449C672.199 123.618 670.09 119.786 666.863 115.493C662.235 109.336 658.903 106.685 654.296 105.491C652.177 104.943 651.377 104.857 644.818 104.481C640.768 104.248 639.668 103.688 637.796 100.904C636.134 98.4346 633.84 94.0616 633.203 92.1553C632.847 91.091 632.864 90.6319 633.277 90.0503C634.148 88.8287 637.773 88.3992 645.224 88.6354C651.088 88.8214 653.861 89.1291 656.493 89.8862C659.016 90.612 660.665 91.5815 662.456 93.3897C664.487 95.4387 665.613 97.2366 668.439 102.929C671.429 108.953 672.364 110.471 674.194 112.28C676.724 114.783 681.093 117.202 686.227 118.946C691.286 120.664 696.07 121.872 697.377 121.761C697.872 121.72 697.969 120.579 697.611 119.066C697.262 117.592 696.625 115.559 696.416 115.255C696.372 115.189 696.237 114.868 696.118 114.54C695.792 113.645 694.364 110.689 693.66 109.445C692.32 107.082 691.188 105.529 689.704 104.019C687.184 101.454 684.961 100.241 677.233 97.2142C674.117 95.9942 673.137 95.2447 672.537 93.6273C672.264 92.8926 671.514 89.3034 671.512 88.7269C671.512 88.5324 671.794 88.5185 675.772 88.5187C678.114 88.5187 680.622 88.5737 681.342 88.6409C685.667 89.0441 688.376 90.1763 690.951 92.6578C692.072 93.7372 694.059 96.1817 694.779 97.3651C695.345 98.2945 696.521 99.6668 698.553 101.771C701.317 104.629 703.257 106.065 706.062 107.328C708.751 108.538 713.482 109.55 716.026 109.461C717.025 109.426 717.262 109.377 717.589 109.145C718.426 108.549 718.394 107.283 717.468 104.473C715.723 99.1753 713.645 97.2454 702.326 90.4102C700.764 89.467 699.496 88.5005 699.633 88.3588C699.668 88.3235 700.901 88.2584 702.374 88.2141C705.034 88.1339 705.057 88.1353 705.827 88.4304C708.201 89.341 710.409 90.7239 711.136 91.7561C712.042 93.0416 715.51 96.4787 717.975 98.5353C721.789 101.716 725.797 102.6 729.794 101.142C733.252 99.8807 741.24 94.7148 745.799 90.7915C747.895 88.9876 750.506 86.6066 750.506 86.4983C750.506 86.4128 746.315 82.8413 744.133 81.0661C735.917 74.3871 731.957 71.945 728.299 71.3013C727.047 71.0814 724.882 71.0848 723.499 71.3093C720.538 71.7891 718.133 73.0417 715.73 75.3548C714.489 76.548 714.053 77.0791 712.909 78.7809C712.48 79.4184 711.787 80.2867 711.37 80.7105C710.728 81.3622 710.364 81.6005 709.022 82.2565C706.634 83.4238 704.142 84.1737 702.191 84.3134C701.369 84.3721 701.151 84.3445 700.608 84.1113C698.537 83.2208 699.335 81.8284 703.502 79.0602C704.42 78.4509 706.27 77.2929 707.614 76.4872C713.359 73.0401 715.638 71.1447 716.801 68.8423C717.583 67.2935 717.899 64.7901 717.418 63.9504C717.051 63.3078 716.227 62.9858 714.812 62.9329C713.48 62.8833 710.898 63.144 709.019 63.5181C704.835 64.3512 701.167 66.517 698.567 69.6894C698.005 70.3751 696.634 72.0117 695.519 73.3262C694.403 74.6405 693.162 76.1217 692.758 76.6173C691.252 78.4681 688.543 80.8047 686.433 82.0712C684.168 83.4311 681.579 84.1416 677.708 84.4661C675.004 84.6927 671.456 84.9256 671.408 84.8793C671.3 84.7759 672.27 80.3818 672.653 79.2361C673.653 76.2407 675.078 74.8636 679.375 72.7424C685.581 69.68 687.223 68.6481 689.516 66.3718C691.825 64.0802 692.949 62.2807 695.579 56.6613C696.607 54.4621 697.053 53.4143 697.443 52.2686C698.134 50.2343 697.971 49.8601 696.405 49.8921C693.451 49.9527 684.337 52.6445 680.29 54.6513C674.953 57.2984 669.541 63.7043 667.365 69.9522C666.04 73.7519 664.95 75.4337 661.832 78.4729C657.378 82.8182 655.089 83.6118 644.883 84.3503C640.856 84.6417 636.79 84.6637 635.395 84.4014C634.12 84.162 633.435 83.7731 633.139 83.1181C632.852 82.4868 632.854 82.1075 633.146 80.9455C633.512 79.4978 634.389 77.3717 635.647 74.8824C637.555 71.1069 639.362 68.5026 640.493 67.8934C641.362 67.4257 642.06 67.3443 645.896 67.2655C650.804 67.1648 653.138 66.865 655.785 65.9953C659.151 64.889 662.089 62.851 664.575 59.9C667.895 55.957 671.262 50.543 672.738 46.7766C675.112 40.7119 680.099 25.3931 679.9 24.7695C679.409 23.2189 671.754 25.0878 663.171 28.8533C651.89 33.8037 642.369 40.6158 638.454 46.5385C636.845 48.9714 636.32 50.4013 635.464 54.6963C635.235 55.8426 635.001 56.9413 634.943 57.1378C634.886 57.3342 634.776 58.0042 634.7 58.6264C634.623 59.2486 634.513 59.9721 634.453 60.234C634.393 60.4961 634.239 61.2464 634.107 61.9014C633.52 64.8557 632.73 67.3726 631.891 68.9606C629.405 73.6711 623.505 79.8739 619.607 81.8777C618.354 82.5223 617.327 82.853 615.836 83.0927C612.635 83.6073 600.043 83.9955 594.028 83.7648C590.166 83.6167 589.143 83.4789 587.974 82.9496C586.831 82.4313 586.737 82.235 586.754 80.4202C586.768 78.8905 587.02 76.5581 587.352 74.8911C587.955 71.846 589.457 69.0773 591.336 67.5457C592.205 66.8371 592.739 66.6204 594.365 66.3154C594.562 66.2785 596.896 66.1975 599.552 66.1353C602.804 66.059 604.808 65.9595 605.687 65.831C610.837 65.0777 613.85 63.3989 619.207 58.2959C627.098 50.7792 632.04 43.877 636.065 34.7527C638.232 29.8367 640.269 23.8149 642.016 17.1525C642.185 16.5138 642.459 15.4688 642.628 14.8302C645.078 5.57921 645.538 3.61611 645.538 2.39957C645.538 1.30226 645.522 1.29404 643.6 1.37931C640.374 1.52246 633.389 3.19964 627.403 5.26827C621.001 7.48112 609.83 13.0555 603.24 17.3242C599.841 19.5272 595.959 22.8636 594.145 25.1394C591.437 28.5373 589.283 33.1967 588.544 37.2493C588.017 40.1344 587.471 49.2532 587.038 62.4231C586.953 65.0108 586.887 65.8483 586.761 65.9959C586.669 66.1021 585.642 67.3677 584.477 68.8088C578.682 75.9809 576 78.4498 571.838 80.4398C566.693 82.9002 560.911 83.5062 542.512 83.5137L535.697 83.5167L534.546 82.1768C533.739 81.2356 533.25 80.5359 532.902 79.8248L532.409 78.8124V77.3238C532.409 76.0657 532.452 75.7061 532.693 75.0015C532.987 74.1413 533.599 72.8238 534.048 72.0872C534.282 71.7035 536.958 67.8066 537.071 67.6846C537.098 67.6556 537.722 67.5925 538.458 67.5443C547.197 66.9712 547.744 66.918 549.982 66.428C551.963 65.9945 554.501 64.9092 556.331 63.7139C565.567 57.679 575.079 41.4345 578.626 25.6378C579.106 23.4975 580.778 16.2887 581.319 14.0263C581.523 13.1748 581.897 11.6207 582.149 10.5726C583.24 6.05535 583.976 1.9263 583.733 1.6849C583.667 1.61773 583.403 1.51448 583.149 1.45565C582.692 1.3493 582.527 1.34585 581.615 1.42373Z" fill="white"/>
</svg>
