<svg width="804" height="242" viewBox="0 0 804 242" fill="none" xmlns="http://www.w3.org/2000/svg">
<path d="M5.2218 241.869V163.784H52.2969L95.6909 217.328L139.085 163.784H187.945V241.869H152.695V196.022L115.547 241.869H75.8345L40.4724 198.253V241.869H5.2218ZM196.844 241.869V163.784H341.863V183.863H232.095V192.787H341.863V212.866H232.095V221.791H341.863V241.869H196.844ZM463.887 241.869V221.791H389.817C366.056 221.791 350.773 207.624 350.773 181.631V163.784H386.024V181.631C386.024 188.883 389.928 192.787 397.18 192.787H463.887V163.784H499.138V241.869H463.887ZM564.525 241.869V190.556H508.08V163.784H656.445V190.556H599.776V241.869H564.525ZM715.049 188.324L698.762 208.405H731.335L715.049 188.324ZM695.193 163.784H734.906L798.155 241.869H758.443L749.408 230.715H680.691L671.655 241.869H631.942L695.193 163.784Z" fill="#4D5057"/>
<path fill-rule="evenodd" clip-rule="evenodd" d="M461.478 1.1296C458.401 1.39238 451.493 3.71691 444.887 6.71234C431.15 12.9421 421.548 21.7834 417.001 32.3899C415.933 34.8807 415.41 36.9317 415.14 39.6925C414.986 41.2507 414.986 41.4206 415.148 43.0978C415.338 45.0867 415.673 46.8151 416.232 48.69C416.831 50.699 417.717 53.7959 417.837 54.2899C418.134 55.522 417.871 56.0664 416.16 57.7618C413.301 60.5954 410.792 62.0511 406.176 63.5547C403.864 64.3073 401.893 64.7516 400.855 64.753C399.912 64.7544 399.42 64.3654 398.798 63.1263C397.823 61.1832 395.179 58.2449 393.289 57.0041C392.092 56.2177 390.342 55.8031 388.577 55.8874C387.843 55.9226 387.65 55.9712 387.031 56.2795C386.641 56.4732 385.749 57.0585 385.047 57.5803C382.532 59.4497 381.526 60.0202 380.296 60.2767C378.906 60.5664 377.817 60.127 375.357 58.2828C371.115 55.1034 369.82 54.6836 367.66 55.7903C367.249 56.0006 365.932 56.9264 364.65 57.9063L362.372 59.6479L344.002 59.744C333.898 59.7969 314.549 59.8842 301.004 59.9379C251.362 60.1353 231.752 60.2876 221.409 60.5557C214.914 60.724 215.079 60.7037 212.648 61.6335C211.922 61.9108 211.81 61.9938 210.738 63.0603C209.493 64.2993 208.913 65.0787 208.684 65.8263C208.325 66.9914 208.325 69.7913 208.684 70.9571C208.89 71.6262 209.419 72.3846 210.434 73.464C211.913 75.0383 212.756 75.6049 214.264 76.0418C216.432 76.6698 218.678 76.7542 235.728 76.8484C251.37 76.9349 253.091 76.988 254.556 77.4293C254.719 77.4789 254.877 77.5783 254.905 77.6504C255.269 78.5995 255.566 87.4181 255.722 101.937C255.923 120.6 256.098 123.625 257.102 125.761C257.537 126.684 258.144 127.221 259.536 127.913C260.879 128.581 261.595 128.808 262.576 128.88C264.354 129.011 266.052 128.264 267.603 126.667C269.125 125.1 269.339 124.375 269.761 119.323C270.173 114.39 270.381 113.749 272.23 111.694C274.199 109.508 275.551 108.712 278.221 108.169C280.904 107.624 283.063 107.829 285.181 108.829C286.66 109.528 287.642 110.285 289.048 111.812C289.967 112.811 290.279 113.295 290.505 114.078C290.815 115.145 290.871 115.646 291.175 119.938C291.471 124.135 292.326 126.247 294.234 127.489C295.224 128.135 296.91 128.77 298.141 128.962C298.733 129.055 299.523 128.857 300.579 128.351C302.572 127.398 304.276 125.882 305.021 124.398C305.704 123.04 305.794 121.156 305.962 104.825C306.127 88.6722 306.175 85.6397 306.304 82.6129C306.455 79.1046 306.693 77.8423 307.257 77.551C307.406 77.4735 307.986 77.35 308.544 77.2765C311.032 76.9493 313.508 76.9148 337.259 76.8757L360.704 76.8373L363.02 78.4957C367.255 81.5276 368.884 82.2 370.806 81.7084C372 81.4028 372.823 80.8946 374.993 79.125C376.113 78.2109 376.878 77.7391 378.004 77.2699C378.574 77.0323 379.95 76.9811 380.698 77.1695C381.579 77.3916 382.862 78.0347 384.268 78.9597C386.89 80.6858 388.618 81.2985 390.482 81.1644C392.197 81.0412 393.655 80.2668 395.304 78.6037C396.266 77.6332 397.085 76.5343 398.656 74.1086C399.345 73.0431 399.96 72.1187 400.02 72.0542C400.103 71.9662 400.269 71.9594 400.694 72.0274C401.005 72.077 401.706 72.1865 402.252 72.2706C402.798 72.3548 403.394 72.4606 403.576 72.5056C406.875 73.3231 408.874 74.0904 411.566 75.5721C412.39 76.0257 414.136 77.2055 414.826 77.774C416.361 79.0406 417.831 80.717 418.296 81.73C418.498 82.1728 418.528 82.3447 418.481 82.7937C418.429 83.2929 418.069 84.654 417.516 86.4399C417.387 86.8556 417.129 87.7273 416.943 88.377C415.072 94.9003 414.791 96.7394 415.164 99.9805C416.018 107.404 422.673 117.458 430.566 123.25C436.661 127.722 445.302 131.852 453.585 134.25C456.754 135.168 460.895 136.075 462.307 136.161C463.673 136.245 463.77 136.107 463.548 134.406C463.368 133.02 463.133 131.839 462.466 128.962C460.885 122.128 457.878 111.115 456.74 107.984C454.408 101.57 451.361 95.9997 447.925 91.8732C447.139 90.9288 445.4 89.1762 444.462 88.3842C442.977 87.1276 441.381 86.1593 439.5 85.3726C437.311 84.4573 436.817 84.3995 430.685 84.3397L425.606 84.2902L424.706 82.9283C423.615 81.2789 423.317 80.7012 422.905 79.4419C422.45 78.0549 422.272 76.9894 422.259 75.5731C422.248 74.4178 422.262 74.3117 422.507 73.7898C422.82 73.1207 424.077 71.7921 424.732 71.435C424.977 71.3019 425.581 71.1159 426.075 71.0215C426.902 70.8634 427.628 70.8502 435.198 70.8554C443.836 70.8611 444.769 70.898 447.296 71.3337C449.191 71.6604 451.755 72.5271 453.719 73.5051C455.88 74.5815 457.708 75.8899 459.575 77.6976C461.36 79.4275 462.304 80.584 464.433 83.6477L465.781 85.5871V86.7221C465.781 88.015 465.924 94.4912 466.067 99.6688C466.306 108.315 466.847 110.107 470.696 114.989C473.673 118.764 479.218 123.081 485.731 126.692C488.096 128.003 489.719 128.81 492.96 130.284C494.25 130.872 497.524 132.142 499.246 132.724C502.101 133.69 503.997 134.214 508.369 135.248C509.371 135.485 510.405 135.623 511.167 135.623C511.882 135.623 512.037 135.595 512.197 135.434C512.539 135.093 512.453 134.6 511.169 129.529C510.434 126.63 509.076 121.582 508.894 121.071C508.847 120.941 508.674 120.389 508.509 119.843C507.903 117.84 506.875 114.727 506.618 114.126C506.575 114.022 506.391 113.533 506.209 113.04C503.79 106.435 500.467 100.239 497.088 96.0308C494.977 93.4034 490.174 88.8609 488.022 87.4576C486.144 86.2328 483.354 85.1837 480.812 84.746C478.649 84.3735 477.207 84.3407 472.625 84.5595C470.995 84.6374 470.551 84.5189 469.85 83.8194C468.582 82.5542 467.711 80.3145 466.535 75.2897C466.268 74.1463 466.009 73.0875 465.961 72.9368C465.913 72.7862 465.875 72.613 465.875 72.552C465.875 72.4277 467.23 71.2507 467.813 70.8684C468.74 70.2611 470.448 70.1453 475.944 70.3171C483.226 70.545 487.34 71.0677 490.644 72.185C491.764 72.5637 493.732 73.5618 494.654 74.2171C496.436 75.4863 498.265 77.4774 499.9 79.9309C501.299 82.0286 502.471 84.5374 503.516 87.6682C503.672 88.136 503.838 88.6037 503.886 88.7076C503.973 88.9011 504.372 90.5796 504.491 91.2589C504.528 91.4669 504.974 93.1465 505.482 94.9915C505.99 96.8365 506.431 98.4867 506.464 98.6588C506.568 99.2103 507.194 100.009 508.746 101.571C511.489 104.333 514.374 106.646 518.389 109.309C522.253 111.87 525.625 113.752 529.639 115.587C532.546 116.917 537.074 118.306 538.817 118.405C539.561 118.446 539.587 118.441 539.787 118.188C540.245 117.605 540.014 116.622 538.017 110.63C537.392 108.759 536.707 106.739 536.491 106.142C536.278 105.544 536.038 104.872 535.961 104.648C535.884 104.424 535.544 103.552 535.207 102.711C533.351 98.0835 531.678 95.0435 529.117 91.637C525.445 86.7518 522.802 84.6487 519.146 83.7013C517.465 83.266 516.83 83.1982 511.626 82.8995C508.412 82.715 507.54 82.2706 506.054 80.0616C504.736 78.1021 502.915 74.6324 502.41 73.1199C502.127 72.2754 502.142 71.9112 502.469 71.4497C503.16 70.4804 506.036 70.1396 511.948 70.327C516.601 70.4746 518.801 70.7187 520.889 71.3195C522.892 71.8954 524.2 72.6646 525.621 74.0993C527.232 75.7251 528.126 77.1516 530.368 81.668C532.74 86.4479 533.482 87.652 534.934 89.0877C536.942 91.0733 540.408 92.9933 544.482 94.3765C548.496 95.7397 552.292 96.6981 553.329 96.6105C553.721 96.5774 553.799 95.6727 553.514 94.4717C553.237 93.3024 552.732 91.6892 552.566 91.448C552.531 91.396 552.424 91.1409 552.33 90.881C552.071 90.1705 550.938 87.8253 550.38 86.8383C549.316 84.9637 548.418 83.7309 547.241 82.533C545.241 80.4981 543.477 79.5353 537.345 77.1339C534.873 76.1659 534.095 75.5711 533.62 74.2878C533.403 73.7049 532.808 70.8571 532.807 70.3996C532.807 70.2453 533.03 70.2343 536.186 70.2345C538.045 70.2345 540.034 70.2781 540.605 70.3314C544.037 70.6514 546.187 71.5497 548.23 73.5186C549.119 74.3751 550.696 76.3146 551.267 77.2536C551.716 77.991 552.649 79.0798 554.262 80.7491C556.455 83.0173 557.994 84.1564 560.22 85.1587C562.353 86.1185 566.107 86.9218 568.126 86.8507C568.918 86.8229 569.107 86.7846 569.365 86.6004C570.03 86.1271 570.004 85.1228 569.27 82.893C567.885 78.6898 566.236 77.1586 557.256 71.7353C556.016 70.9869 555.01 70.22 555.118 70.1076C555.147 70.0796 556.124 70.0279 557.294 69.9927C559.404 69.9292 559.422 69.9303 560.033 70.1644C561.917 70.8869 563.669 71.9842 564.245 72.8032C564.964 73.8231 567.716 76.5502 569.672 78.1821C572.699 80.7057 575.878 81.4073 579.05 80.2506C581.793 79.2495 588.132 75.1507 591.749 72.0378C593.412 70.6065 595.483 68.7173 595.483 68.6314C595.483 68.5635 592.158 65.7297 590.426 64.3212C583.908 59.0218 580.766 57.0842 577.864 56.5734C576.87 56.399 575.152 56.4016 574.055 56.5798C571.705 56.9605 569.797 57.9544 567.891 59.7896C566.906 60.7364 566.56 61.1578 565.652 62.508C565.312 63.0139 564.762 63.7029 564.431 64.0391C563.922 64.5562 563.633 64.7453 562.568 65.2657C560.673 66.1919 558.696 66.7869 557.149 66.8978C556.496 66.9444 556.323 66.9224 555.892 66.7374C554.249 66.0308 554.882 64.9261 558.188 62.7297C558.917 62.2462 560.385 61.3275 561.451 60.6881C566.01 57.9531 567.818 56.4492 568.741 54.6224C569.361 53.3935 569.612 51.4071 569.23 50.7409C568.939 50.2311 568.285 49.9755 567.162 49.9336C566.105 49.8942 564.057 50.101 562.565 50.3979C559.246 51.0589 556.335 52.7774 554.273 55.2945C553.827 55.8386 552.739 57.1371 551.854 58.18C550.969 59.2229 549.984 60.3981 549.664 60.7914C548.469 62.2599 546.319 64.1138 544.645 65.1187C542.848 66.1977 540.794 66.7615 537.723 67.019C535.577 67.1988 532.762 67.3835 532.724 67.3468C532.638 67.2648 533.407 63.7783 533.711 62.8692C534.505 60.4926 535.636 59.3999 539.045 57.7169C543.969 55.287 545.272 54.4683 547.092 52.6622C548.923 50.8439 549.815 49.4161 551.902 44.9574C552.718 43.2125 553.071 42.3811 553.381 41.4721C553.93 39.858 553.8 39.5611 552.558 39.5864C550.214 39.6346 542.982 41.7703 539.771 43.3626C535.536 45.4629 531.242 50.5457 529.516 55.503C528.465 58.5179 527.599 59.8522 525.126 62.2637C521.592 65.7115 519.775 66.3411 511.678 66.9271C508.483 67.1582 505.257 67.1757 504.149 66.9676C503.138 66.7777 502.595 66.4691 502.36 65.9494C502.132 65.4485 502.133 65.1475 502.365 64.2255C502.655 63.0769 503.352 61.3899 504.349 59.4148C505.863 56.4192 507.297 54.3528 508.194 53.8695C508.884 53.4983 509.438 53.4338 512.481 53.3713C516.376 53.2914 518.227 53.0534 520.328 52.3635C522.999 51.4857 525.33 49.8686 527.302 47.5271C529.936 44.3986 532.608 40.1029 533.779 37.1145C535.663 32.3025 539.619 20.1479 539.462 19.6531C539.072 18.4228 532.998 19.9056 526.188 22.8934C517.237 26.8212 509.683 32.2263 506.576 36.9256C505.3 38.8559 504.884 39.9905 504.204 43.3984C504.023 44.3078 503.837 45.1796 503.79 45.3355C503.745 45.4914 503.658 46.0229 503.598 46.5166C503.537 47.0103 503.45 47.5844 503.402 47.7922C503.354 48.0002 503.232 48.5954 503.128 49.1152C502.662 51.4592 502.035 53.4563 501.369 54.7162C499.396 58.4537 494.715 63.3753 491.623 64.9652C490.628 65.4766 489.814 65.739 488.63 65.9293C486.091 66.3376 476.1 66.6455 471.327 66.4625C468.263 66.345 467.451 66.2357 466.524 65.8157C465.616 65.4044 465.542 65.2487 465.556 63.8088C465.567 62.595 465.767 60.7444 466.03 59.4217C466.508 57.0056 467.7 54.8088 469.191 53.5936C469.881 53.0314 470.304 52.8594 471.595 52.6174C471.751 52.5882 473.602 52.5239 475.71 52.4745C478.29 52.414 479.88 52.335 480.578 52.233C484.664 51.6354 487.054 50.3034 491.305 46.2544C497.566 40.2903 501.487 34.8138 504.681 27.5742C506.4 23.6737 508.017 18.8957 509.403 13.6095C509.537 13.1027 509.755 12.2735 509.888 11.7668C511.833 4.42673 512.197 2.86912 512.197 1.90387C512.197 1.03321 512.184 1.02669 510.659 1.09435C508.1 1.20793 502.558 2.53868 497.808 4.18002C492.729 5.93578 483.865 10.3587 478.637 13.7457C475.939 15.4936 472.859 18.1409 471.42 19.9466C469.272 22.6426 467.562 26.3396 466.975 29.5551C466.558 31.8443 466.124 39.0795 465.781 49.5291C465.713 51.5823 465.661 52.2468 465.561 52.3639C465.488 52.4482 464.674 53.4523 463.749 54.5958C459.151 60.2864 457.023 62.2454 453.72 63.8243C449.639 65.7765 445.051 66.2574 430.452 66.2633L425.045 66.2657L424.132 65.2026C423.491 64.4557 423.103 63.9005 422.827 63.3363L422.436 62.5331V61.3519C422.436 60.3537 422.47 60.0684 422.661 59.5094C422.895 58.8268 423.38 57.7815 423.736 57.197C423.922 56.8925 426.045 53.8006 426.135 53.7038C426.156 53.6808 426.652 53.6307 427.235 53.5925C434.169 53.1377 434.604 53.0955 436.379 52.7068C437.951 52.3628 439.964 51.5017 441.416 50.5533C448.745 45.7649 456.292 32.8759 459.106 20.3421C459.488 18.6439 460.814 12.9241 461.243 11.129C461.405 10.4534 461.702 9.22027 461.902 8.38873C462.767 4.80452 463.351 1.52836 463.158 1.33682C463.106 1.28353 462.897 1.2016 462.695 1.15492C462.332 1.07054 462.202 1.0678 461.478 1.1296Z" fill="#4D5057"/>
</svg>
