<svg width="63" height="63" viewBox="0 0 63 63" fill="none" xmlns="http://www.w3.org/2000/svg">
<rect width="63" height="63" rx="5" fill="#B8914D"/>
<path d="M38.4222 28.0667C34.0222 23.1778 34.0222 17.3111 34.0222 9C20.3333 14.3778 23.7556 29.0444 23.2667 33.9333C19.8444 31 18.8667 24.1556 18.8667 24.1556C14.9556 26.1111 13 31 13 34.9111C13 44.6889 21.3111 53 31.5778 53C41.8444 53 50.1556 45.1778 50.1556 34.9111C50.1556 29.0444 45.7556 26.1111 45.7556 18.2889C39.4 20.2444 38.4222 25.1333 38.4222 28.0667Z" fill="white"/>
<path d="M31.0889 32.9556C37.4445 35.4 35.9778 42.2445 35.9778 44.2C37.4445 42.7333 37.9334 39.8 37.9334 39.8C39.4001 40.7778 40.3778 42.7333 40.3778 44.6889C40.3778 49.0889 36.4667 53 32.0667 53C27.6667 53 23.7556 49.0889 23.7556 44.6889C24.2445 40.2889 31.0889 36.8667 31.0889 32.9556Z" fill="#E9E9E9"/>
</svg>
