<svg width="63" height="63" viewBox="0 0 63 63" fill="none" xmlns="http://www.w3.org/2000/svg">
<rect width="63" height="63" rx="5" fill="#B8914D"/>
<path d="M48.2635 15.7365C43.9193 11.3924 38.1435 9 32 9C25.8565 9 20.0807 11.3924 15.7365 15.7365C11.3923 20.0806 9 25.8565 9 32C9 38.1435 11.3924 43.9193 15.7365 48.2635C20.0806 52.6077 25.8565 55 32 55C38.1435 55 43.9193 52.6076 48.2635 48.2635C52.6077 43.9194 55 38.1435 55 32C55 25.8565 52.6076 20.0807 48.2635 15.7365ZM48.072 44.0983C46.6965 43.1674 45.2566 42.363 43.7638 41.6914C44.4231 39.1204 44.8147 36.3289 44.9123 33.4375H52.0731C51.7906 37.4208 50.3441 41.0874 48.072 44.0983ZM11.9269 33.4375H19.0877C19.1854 36.3289 19.5769 39.1205 20.2362 41.6914C18.7434 42.363 17.3035 43.1673 15.928 44.0983C13.6559 41.0874 12.2094 37.4208 11.9269 33.4375ZM15.9277 19.9022C17.3032 20.8331 18.743 21.6375 20.236 22.3091C19.5768 24.88 19.1853 27.6712 19.0876 30.5625H11.9269C12.2094 26.5794 13.6558 22.913 15.9277 19.9022ZM41.4001 16.0765C40.8733 15.089 40.3042 14.1978 39.6989 13.407C42.1309 14.4178 44.3234 15.8919 46.1656 17.7192C45.1211 18.4055 44.0361 19.0102 42.9173 19.5327C42.4783 18.3051 41.9714 17.1477 41.4001 16.0765ZM40.2353 20.605C37.6108 21.4848 34.8411 21.9375 32 21.9375C29.1589 21.9375 26.3892 21.4848 23.7647 20.605C25.6032 15.3714 28.6408 11.875 32 11.875C35.3592 11.875 38.3968 15.3714 40.2353 20.605ZM21.9647 30.5625C22.0596 28.0161 22.4036 25.5833 22.9473 23.3646C25.8346 24.3209 28.8786 24.8125 32 24.8125C35.1214 24.8125 38.1654 24.3209 41.0527 23.3646C41.5965 25.5833 41.9404 28.0161 42.0353 30.5625H21.9647ZM42.0353 33.4375C41.9403 35.984 41.5964 38.417 41.0526 40.6358C38.1651 39.6793 35.1211 39.1875 32 39.1875C28.8789 39.1875 25.8349 39.6793 22.9474 40.6358C22.4036 38.417 22.0596 35.984 21.9647 33.4375H42.0353ZM22.5999 16.0765C22.0287 17.1477 21.5218 18.3051 21.0827 19.5327C19.964 19.0102 18.8789 18.4054 17.8344 17.7192C19.6765 15.8917 21.869 14.4177 24.3011 13.4069C23.6958 14.1978 23.1266 15.089 22.5999 16.0765ZM21.0828 44.4679C21.5218 45.6952 22.0287 46.8525 22.5998 47.9235C23.1266 48.911 23.6957 49.8022 24.301 50.593C21.8692 49.5822 19.6769 48.1084 17.8349 46.2812C18.8793 45.5951 19.9643 44.9903 21.0828 44.4679ZM23.7649 43.3953C26.3895 42.5154 29.1591 42.0625 32 42.0625C34.8409 42.0625 37.6105 42.5154 40.2351 43.3953C38.3966 48.6288 35.3591 52.125 32 52.125C28.6409 52.125 25.6034 48.6288 23.7649 43.3953ZM41.4001 47.9235C41.9712 46.8525 42.4781 45.6952 42.9171 44.4679C44.0357 44.9903 45.1207 45.5952 46.165 46.2812C44.3231 48.1084 42.1307 49.5823 39.6989 50.593C40.3042 49.8022 40.8734 48.911 41.4001 47.9235ZM44.9123 30.5625C44.8146 27.6713 44.4231 24.88 43.7639 22.3091C45.2569 21.6375 46.6968 20.8331 48.0722 19.9022C50.3441 22.9129 51.7905 26.5793 52.073 30.5625H44.9123Z" fill="white"/>
</svg>
