<svg width="63" height="63" viewBox="0 0 63 63" fill="none" xmlns="http://www.w3.org/2000/svg">
<rect width="63" height="63" rx="5" fill="#B8914D"/>
<path d="M53.2277 48.4415C50.6486 47.1458 47.6156 47.236 45.1103 48.618V41.3515C48.6714 37.9228 50.7281 33.1875 50.7281 28.2296C50.7281 18.1789 42.5506 10.0015 32.4999 10.0015C22.4492 10.0015 14.2718 18.1789 14.2718 28.2296C14.2718 33.1875 16.3192 37.9227 19.8804 41.3515V48.6175C17.3762 47.2356 14.3523 47.1441 11.7723 48.4415C11.0804 48.7883 10.802 49.6318 11.1498 50.3238C11.4966 51.0157 12.3383 51.296 13.0321 50.9464C14.9692 49.9732 17.2842 50.1458 19.0762 51.4001C22.1197 53.5327 26.0541 53.5327 29.0977 51.4001C31.1635 49.9541 33.8346 49.9532 35.9022 51.4001C37.4239 52.4663 39.1684 52.9994 40.9129 52.9994C42.7488 52.9994 44.6461 52.2954 45.9228 51.401C47.7157 50.1457 50.0335 49.9733 51.9678 50.9464C52.6616 51.296 53.5033 51.0157 53.8501 50.3238C54.1981 49.6319 53.9196 48.7884 53.2277 48.4415ZM32.4999 18.4145C37.4351 18.4145 41.519 22.0787 42.203 26.8274C34.8235 26.8274 30.2419 26.8274 22.7843 26.8274C23.4671 22.0769 27.5641 18.4145 32.4999 18.4145ZM42.3151 50.0003C41.1374 50.2926 39.9051 50.2121 38.7615 49.7592C39.2051 49.5236 39.5014 49.0625 39.5014 48.5254V42.2513C39.5014 41.4772 38.8827 40.8491 38.1086 40.8491C37.3345 40.8491 36.7064 41.4772 36.7064 42.2513V48.5254C36.7064 48.5623 36.7144 48.5968 36.7173 48.633C35.822 48.1342 34.8657 47.7891 33.8927 47.6278V45.0555C33.8927 44.2815 33.274 43.6533 32.4999 43.6533C31.7258 43.6533 31.0977 44.2815 31.0977 45.0555V47.6278C29.8342 47.8373 28.6017 48.3244 27.4891 49.1033C26.0424 50.1162 24.2931 50.4037 22.6682 49.9981C22.6693 49.9743 22.6753 29.6318 22.6753 29.6318C24.2657 29.6318 23.9021 29.6318 25.489 29.6318V33.8383C25.489 34.6124 26.1171 35.2405 26.8912 35.2405C27.6653 35.2405 28.284 34.6124 28.284 33.8383V29.6318H36.7063V36.6427C36.7063 37.4168 37.3345 38.0449 38.1085 38.0449C38.8826 38.0449 39.5013 37.4168 39.5013 36.6427V29.6318H42.315V50.0003H42.3151Z" fill="white"/>
</svg>
