<svg width="31" height="31" viewBox="0 0 31 31" fill="none" xmlns="http://www.w3.org/2000/svg">
<path d="M6.3125 19.875C3.88258 20.8015 2.375 22.0924 2.375 23.5204C2.375 26.3396 8.25127 28.625 15.5 28.625C22.7488 28.625 28.625 26.3396 28.625 23.5204C28.625 22.0924 27.1174 20.8015 24.6875 19.875M15.5 11.125H15.5146M24.25 11.125C24.25 17.0512 17.6875 19.875 15.5 24.25C13.3125 19.875 6.75 17.0512 6.75 11.125C6.75 6.29251 10.6675 2.375 15.5 2.375C20.3325 2.375 24.25 6.29251 24.25 11.125ZM16.9583 11.125C16.9583 11.9304 16.3054 12.5833 15.5 12.5833C14.6946 12.5833 14.0417 11.9304 14.0417 11.125C14.0417 10.3196 14.6946 9.66667 15.5 9.66667C16.3054 9.66667 16.9583 10.3196 16.9583 11.125Z" stroke="#474A51" stroke-width="2.91667" stroke-linecap="round" stroke-linejoin="round"/>
</svg>
