<svg width="26" height="26" viewBox="0 0 26 26" fill="none" xmlns="http://www.w3.org/2000/svg">
<path d="M14.6844 6.375C15.8443 6.6013 16.9102 7.16856 17.7459 8.00418C18.5815 8.83979 19.1488 9.90575 19.375 11.0656M14.6844 1.625C17.0942 1.89271 19.3413 2.97183 21.0569 4.6852C22.7723 6.39856 23.8544 8.64432 24.125 11.0537M19.9688 24.1875C9.80326 24.1875 1.5625 15.9467 1.5625 5.78125C1.5625 5.32261 1.57928 4.8679 1.61224 4.41768C1.65008 3.90099 1.669 3.64265 1.80439 3.40747C1.91654 3.2127 2.11528 3.02798 2.31773 2.93036C2.56215 2.8125 2.84723 2.8125 3.41739 2.8125H6.76294C7.24241 2.8125 7.48214 2.8125 7.68765 2.89141C7.86918 2.96112 8.03082 3.07433 8.15837 3.22112C8.30276 3.38729 8.38469 3.61259 8.54855 4.06319L9.93331 7.87131C10.1239 8.39557 10.2193 8.6577 10.2031 8.90639C10.1889 9.12569 10.1139 9.33672 9.98686 9.51601C9.84277 9.71933 9.6036 9.86284 9.12525 10.1498L7.5 11.125C8.92726 14.2706 11.4782 16.8249 14.625 18.25L15.6002 16.6248C15.8872 16.1463 16.0306 15.9072 16.2339 15.7631C16.4133 15.6361 16.6243 15.5611 16.8436 15.5469C17.0923 15.5307 17.3545 15.6261 17.8787 15.8167L21.6868 17.2014C22.1374 17.3653 22.3627 17.4472 22.5289 17.5916C22.6757 17.7192 22.7889 17.8808 22.8585 18.0624C22.9375 18.2678 22.9375 18.5076 22.9375 18.9871V22.3326C22.9375 22.9027 22.9375 23.1879 22.8196 23.4323C22.722 23.6347 22.5373 23.8335 22.3426 23.9456C22.1073 24.081 21.849 24.0999 21.3324 24.1377C20.8821 24.1708 20.4274 24.1875 19.9688 24.1875Z" stroke="#474A51" stroke-width="2.375" stroke-linecap="round" stroke-linejoin="round"/>
</svg>
